<svg xmlns="http://www.w3.org/2000/svg" version="1.1" viewBox="0 0 1254 1254" width="1254px" height="1254px" style="shape-rendering:geometricPrecision; text-rendering:geometricPrecision; image-rendering:optimizeQuality; fill-rule:evenodd; clip-rule:evenodd" xmlns:xlink="http://www.w3.org/1999/xlink">
<rect x="0" y="0" width="1254" height="1254" fill="#fefefe"/>
<g><path fill="#fefefe" stroke="#fefefe" stroke-width="0.5" d="M 0,0 c 418,0 836,0 1254,0 c 0,418 0,836 0,1254 c -418,0 -836,0 -1254,0 c 0,-418 0,-836 0,-1254 Z M 294.81,232.91 c 38.11,157.38 78.15,314.29 118.5,471.11 c -0.11,0.91 -0.42,1.74 -0.92,2.47 c -23.67,-6.36 -47.41,-12.42 -71.22,-18.17 c -3.7,-1.06 -7.47,-1.85 -11.29,-2.37 c -0.34,-0.56 -0.84,-0.86 -1.52,-0.9 c -51.54,-10.18 -102.82,-23.06 -154.36,-33.53 c -4.89,-0.91 -9.76,-1.8 -14.59,-2.66 c -2.05,0.96 1.14,3.65 2.32,3.93 c 0.61,0.29 1.16,0.67 1.65,1.14 c 86.34,83.35 173.06,165.93 255.55,253.17 c 20.6,21.65 41.06,44.73 62.03,65.88 c 1.33,1.97 3.31,0.11 4.75,-0.62 c 17.16,-10.94 34.31,-21.89 51.46,-32.84 c 6.52,-4.27 13.17,-8.33 19.93,-12.2 c 1.61,0.77 3.25,0.87 4.93,0.29 c 15.33,4.11 30.67,8.18 46.02,12.22 c 7.66,2.01 15.33,4.01 22.99,6.03 c 20.99,5.71 41.99,11.37 63,16.99 c 27.22,7.42 54.46,14.72 81.75,21.88 c 2.46,0.42 4.84,1.86 6.68,-0.59 c 1.32,-1.95 2.51,-3.96 3.59,-6.04 c 11.93,-20.04 23.97,-40.02 36.11,-59.93 c 15.97,-25.44 32.18,-50.73 48.64,-75.86 c 0.96,-1.44 1.73,-2.99 2.32,-4.62 c 11.91,-50.48 23.63,-101.01 35.16,-151.59 c 10.97,-47.34 22.01,-94.66 33.11,-141.96 c 3.49,-14.62 6.83,-29.27 10.04,-43.95 c 0.3,-2.05 0.89,-4 1.79,-5.86 c 1.11,-1.15 3.5,-0.16 4.78,0.11 c 42.58,14.43 85.16,28.84 127.74,43.24 c 2.29,0.81 4.59,1.55 6.93,2.21 c 1.33,-0.07 1.49,-0.6 0.49,-1.57 c -39.43,-38.87 -79.02,-77.57 -118.78,-116.1 c -1.09,-0.97 -2.24,-1.86 -3.45,-2.67 c 0.14,-0.61 0,-1.13 -0.42,-1.58 c -26.88,-4 -53.69,-8.97 -80.54,-13.4 c -1.44,-0.03 -6.22,-1.76 -4.71,1.56 c -1.69,1.63 -2.64,3.6 -2.85,5.91 c -1.42,1.29 -2.52,2.81 -3.3,4.58 c -13.41,26.26 -26.89,52.48 -40.45,78.67 c -0.79,1.32 -1.3,2.75 -1.53,4.27 c -0.59,0.37 -1,0.88 -1.25,1.53 c -1.61,0.67 -20.41,39.23 -21.9,43.62 c -0.47,0.4 -0.83,0.87 -1.1,1.41 c -7.66,14.88 -15.31,29.78 -22.94,44.69 c -7.38,15.08 -14.94,30.07 -22.69,44.97 c -0.19,0.4 -0.37,0.8 -0.56,1.21 c -0.32,0.03 -0.57,0.19 -0.73,0.48 c -3.44,7.2 -14.73,31.69 -19.36,36.11 c -1.15,-2.17 -2.65,-4.08 -4.5,-5.71 c -5.5,-6.16 -11.11,-12.2 -16.83,-18.15 c -5.94,-6.39 -11.9,-12.76 -17.87,-19.12 c -21.26,-23.13 -44.9,-46.44 -65.53,-69.84 c -3.68,-2.84 -6.62,-5.96 -9.72,-9.53 c -0.45,-0.39 -0.87,-0.81 -1.25,-1.27 c -15.66,-16.46 -31.42,-32.82 -47.29,-49.1 c -0.37,-0.46 -0.86,-0.72 -1.44,-0.76 c -0.45,-0.99 -1.21,-1.61 -2.28,-1.86 c -2.05,-6.33 -41.15,-42.89 -48.58,-50.24 c -0.38,-0.43 -0.82,-0.81 -1.3,-1.14 c -16.65,-17.16 -33.68,-34.1 -50.93,-50.6 c -0.69,-0.56 -1.39,-1.11 -2.09,-1.65 c 0.05,-0.85 -16.9,-17.06 -18.99,-19.12 c -11.23,-10.92 -22.53,-21.75 -33.89,-32.49 c -0.46,-0.32 -0.87,-0.7 -1.22,-1.14 c -39.5,-37.68 -80.19,-74.03 -122.07,-109.04 c -2.09,-1.62 -4.2,-3.19 -6.35,-4.72 c -0.79,0.72 -1.25,4.61 0.33,4.81 Z M 882.01,640.26 c 0.96,0.12 1.36,0.69 1.21,1.7 c -4.6,16.72 -9.29,33.41 -14.04,50.08 c -3.4,12.38 -6.87,24.73 -10.42,37.05 c -0.64,-0.06 -1.27,-0.14 -1.9,-0.25 c -0.13,-0.42 -0.14,-0.84 -0.03,-1.26 c 3.93,-13.12 7.86,-26.23 11.8,-39.34 c 0.21,-0.73 0.28,-1.48 0.22,-2.24 c 0.68,-0.59 1.04,-1.32 1.07,-2.2 c -1.11,-1.45 0.17,-2.42 0.78,-3.72 c 1.45,-6.61 4.04,-12.81 5.16,-19.62 c 0.97,-1.13 1.32,-2.44 1.05,-3.91 c 1.78,-5.47 3.14,-10.84 5.1,-16.29 Z M 712.97,747.93 c 1.4,2.24 2.61,4.58 3.63,7.03 c 5.07,11.68 10.15,23.37 15.23,35.05 c -0.56,-0.02 -1,0.21 -1.33,0.68 c -1.63,-2.6 -3.06,-5.33 -4.28,-8.19 c -4.15,-11.38 -9.86,-22.22 -14.33,-33.34 c 0.17,-0.58 0.53,-0.98 1.08,-1.23 Z"/></g>
<g><path fill="#9cc4fd" stroke="#9cc4fd" stroke-width="0.5" d="M 686.94,834.77 c 4.71,0.69 9.44,1.17 14.19,1.42 c -1.44,1.82 -7.5,0.31 -9.6,0.47 c -7.4,0.47 -14.8,0.34 -22.19,-0.39 c -1.69,-0.07 -1.41,0.91 -2.24,2.01 c -1.68,-1.35 -5.46,-2.51 -6.28,-4.51 c 2.85,0.06 5.75,0.12 8.68,0.18 c 3.06,0.36 15.33,1.94 17.44,0.82 Z M 752.9,885.01 c 2.14,0.8 4.34,0.97 6.6,0.52 c 1.68,0.21 3.34,0.45 5,0.74 c 2.38,-0.07 4.76,-0.13 7.12,-0.19 c 0.71,0.75 1.57,1.01 2.6,0.8 c 0.14,0.3 0.27,0.6 0.4,0.9 c -6.11,1.95 -14.63,-1.02 -21.12,-0.21 c -3.75,-0.42 -13.07,-1.3 -16.26,-0.31 c -1.61,-0.61 -3.08,-1.45 -4.42,-2.53 c 1.05,-1.44 4.18,0.39 5.78,0.22 c 3.1,-0.73 12.39,1.17 14.3,0.06 Z M 787.21,922.82 c 0.63,0.27 1.29,0.34 1.96,0.21 c -1.82,17.01 -3.85,34 -6.09,50.97 c -2.14,-0.13 -1,5.97 -1.41,7.26 c -0.84,1.35 -0.57,2.31 0.8,2.88 c -1.84,2.45 -4.22,1.01 -6.68,0.59 c -27.29,-7.16 -54.53,-14.46 -81.75,-21.88 c -0.23,-1.28 1.02,-0.66 1.68,-1.39 c -1.79,-0.6 -3.55,-1.27 -5.29,-2.01 c 1.11,-0.25 2.18,-0.58 3.23,-0.99 c -0.2,-0.44 -0.2,-0.86 0.01,-1.27 c 1.25,-1.26 3.22,-3.88 2.71,-5.75 c 0.66,-1.19 5.05,-2.2 4.45,-3.78 c -1.32,-0.67 -2.71,-1.17 -4.17,-1.49 c -1.44,1.22 -4.6,2.89 -6.28,1.34 c 0.21,-0.46 0.18,-0.89 -0.09,-1.28 c -2.02,-1.46 -2.56,-1.03 -1.64,1.27 c -3.71,2.08 -4.59,-1.62 -3.03,-4.38 c 1.63,-3.47 5,-3.05 6.06,-6.91 c 1.81,-2.13 3.34,-2.8 4.41,-5.63 c 1.64,-1.79 3.74,1.49 4.72,-0.24 c -0.17,-0.83 -0.65,-1.45 -1.44,-1.87 c 0.16,-0.63 0.17,-1.26 0.03,-1.9 c 1.13,-0.33 2.23,-0.71 3.32,-1.13 c -0.3,-0.33 -0.69,-0.47 -1.16,-0.43 c -9.05,-0.01 -18.09,0.04 -27.14,0.13 c -0.81,0.13 -1.28,-0.19 -1.42,-0.94 c 38.07,-0.6 76.14,-1.06 114.21,-1.38 Z"/></g>
<g><path fill="#5396f7" stroke="#5396f7" stroke-width="0.5" d="M 951.44,500.19 c -3.21,14.68 -6.55,29.33 -10.04,43.95 c -2.11,-0.15 -0.25,-3.46 -0.57,-4.71 c -0.3,-2.68 -1.73,-4.36 -4.29,-5.03 c -0.56,0.36 -0.76,0.87 -0.61,1.53 c 7.9,11.72 -11.87,12.91 -13.01,22.38 c 0.65,0.3 1.21,0.71 1.69,1.22 c -0.67,1.4 -1.41,5.38 -2.24,6.33 c -1.08,-0.38 -2.19,-0.52 -3.33,-0.41 c -1.68,0.78 -2.57,2.13 -2.67,4.04 c 0.44,0.32 0.86,0.66 1.28,1.02 c -0.36,7.14 -6.43,14.64 -10.34,20.52 c -1.37,2.21 -3.35,3.38 -5.93,3.5 c -1.96,-1.01 -1.92,-2.27 -3.09,1.12 c -0.25,1.51 -0.39,2.32 1.2,1.67 c 7.55,2.32 7.33,10.65 2,15.19 c -0.03,0.35 0,0.69 0.09,1.03 c -2.85,1.64 -3.94,8.68 -6.12,11.46 c -2.65,4.31 -7.19,7.36 -8.91,12.19 c -1.69,5.66 -3.02,11.41 -3.99,17.24 c -2.49,6.61 -3.6,12.78 -4.96,19.61 c -2.18,5.94 -4.12,11.23 -5.87,17.31 c -0.97,2.02 -1.12,0.26 -2.55,0.69 c 4.75,-16.67 9.44,-33.36 14.04,-50.08 c 0.6,-1.18 0.89,-2.44 0.87,-3.78 c 4.32,-14.34 8.39,-28.76 12.21,-43.25 c 0.4,-0.56 0.64,-1.2 0.72,-1.92 c 1.77,-6.75 3.64,-13.47 5.6,-20.16 c 0.32,0.94 0.64,1.88 0.98,2.8 c 1.07,-3.39 2.18,-6.78 3.3,-10.17 c 0.4,-2.84 1.27,-5.52 2.59,-8.05 c 0.3,0.45 0.65,0.87 1.03,1.26 c 4.5,-2.64 4.3,-6.19 1.73,-10.38 c -0.69,-2.42 4.11,-17.15 5,-20.65 c 0.5,-1.08 1.77,-0.33 2.24,0.34 c 0.23,1.28 0.56,2.51 0.98,3.7 c 2.25,-0.62 1.47,-3.44 1.56,-5.16 c 0.77,-1.76 1.24,-3.59 1.42,-5.5 c 0.8,-0.54 1.59,-1.1 2.36,-1.67 c 0.51,-1.16 1.09,-2.3 1.74,-3.4 c 0.93,-0.77 1.71,-1.66 2.35,-2.67 c -0.02,-1.03 -0.49,-1.27 -1.41,-0.7 c -0.56,-0.87 -0.55,-1.76 0.04,-2.67 c 2.44,-1.35 5.49,-3.64 6.6,-6.29 c 0.58,-0.05 1.15,-0.14 1.71,-0.27 c -0.03,-0.62 -0.18,-1.22 -0.44,-1.79 c 0.81,-3.84 1.83,-3.76 4.96,-5.72 c 0.25,-0.42 0.25,-0.87 0.01,-1.35 c 0.99,-0.91 3.24,-0.19 4.3,0.37 c 0.78,-0.17 1.54,-0.29 2.3,-0.37 c 0.76,0.57 1.38,1.26 1.85,2.08 c 0.18,1.31 -0.18,3.33 1.62,3.6 Z M 662.16,604.87 c 9.7,11.72 19.31,23.51 28.82,35.39 c 2.69,3.35 5.4,6.68 8.14,10 c 1.74,2.14 3.47,4.29 5.17,6.46 c -1.05,0.54 -2.12,1.13 -3.2,1.78 c -1.94,1.26 -3.31,2.97 -4.13,5.12 c -0.87,4.32 4.77,6.62 7.36,9.06 c 2.45,3.82 2.56,7.96 4.15,12.13 c 1.07,2.62 2.46,7.73 4.14,9.7 c -0.47,1.28 -0.6,2.6 -0.39,3.95 c 0.29,1.64 0.62,3.25 0.99,4.84 c 0.5,0.18 1.03,0.34 1.56,0.49 c 1.19,1.12 2.24,2.36 3.16,3.7 c 0.94,0.59 1.36,-0.79 1.89,0.27 c 0.43,6.06 0.86,12.13 1.31,18.21 c 0,0.93 -0.13,1.85 -0.38,2.76 c 0.02,1.24 -2.68,3.96 -1.3,4.88 c 0.34,-0.42 0.69,-0.83 1.04,-1.24 c 2.72,5.71 5.23,11.7 6.7,17.93 c 1.19,0.32 2.3,0.91 3.31,1.78 c 2.84,2.66 3.3,5.7 1.38,9.12 c -0.24,0.43 -0.57,0.77 -0.99,1.03 c -5.48,-3.76 -10.13,-27.58 -16.6,-30.93 c -0.08,-5.8 -5.05,-12.43 -7.16,-17.92 c -1.52,0.1 -3.05,-0.01 -4.59,-0.31 c -1.51,0.57 -0.56,1.4 -1.05,2.55 c -0.79,-1.18 -3.46,-5.03 -2.04,-6.27 c 0.48,0.23 0.94,0.22 1.37,-0.02 c 0.54,-7.19 2.14,-6.83 -2.2,-13.46 c -0.73,-3.4 -1.26,-5.65 -3.94,-8.02 c -0.71,-1.13 -1.27,-3.99 -3.08,-3.72 c -0.66,0.33 -1.3,0.7 -1.91,1.11 c -0.09,0.56 -0.23,1.11 -0.42,1.63 c -0.2,-0.01 -0.39,-0.02 -0.58,-0.03 c -0.76,-1.16 -1.51,-2.33 -2.24,-3.51 c -0.3,0.85 -0.46,1.74 -0.46,2.7 c -10.38,-23.33 -20.86,-46.61 -31.44,-69.84 c 0.5,-0.16 0.9,-0.45 1.19,-0.88 c 0.64,-5.16 4.72,-6.93 6.42,-10.44 Z"/></g>
<g><path fill="#b2d0fd" stroke="#b2d0fd" stroke-width="0.5" d="M 343.29,340.11 c 3.06,-0.22 6.13,-0.26 9.21,-0.1 c 20.67,0.66 41.33,1.33 62,2.02 c 2.81,0.08 5.61,0.02 8.4,-0.17 c 0.35,0.44 0.76,0.82 1.22,1.14 c -0.57,0.98 -1.43,1.36 -2.6,1.14 c -25.01,-0.74 -50.02,-1.42 -75.02,-2.03 c -1.18,0.05 -1.75,0.67 -1.72,1.87 c -0.75,-1.18 -1.24,-2.47 -1.49,-3.87 Z M 366.28,392.15 c 30.39,0.67 60.8,1.35 91.21,2.03 c 6.5,0.65 13,0.79 19.51,0.43 c 0.7,0.54 1.4,1.09 2.09,1.65 c -0.41,0.47 -0.93,0.69 -1.58,0.63 c -5.33,-0.1 -10.67,-0.17 -16.01,-0.23 c -30.69,-0.78 -61.37,-1.69 -92.04,-2.7 c -1.32,-0.08 -1.93,0.53 -1.82,1.83 c -0.98,0.2 -0.68,-2.95 -1.36,-3.64 Z M 943.98,455.95 c 1.31,0.52 2.67,0.92 4.06,1.2 c 0.03,0.36 0.21,0.63 0.54,0.8 c 4.39,2.34 8.81,4.65 13.25,6.95 c 2.99,1.92 5.98,3.83 8.99,5.72 c 18.24,9.92 36.02,21.14 54.28,30.93 c 0.97,0.62 0.94,1.23 -0.08,1.85 c -24.35,-13.39 -48.63,-26.91 -72.84,-40.56 c -2.97,-1.48 -5.82,-3.15 -8.57,-5.01 c -0.5,-0.01 -0.95,0.13 -1.35,0.43 c 0.17,-1.09 0.75,-1.86 1.72,-2.31 Z M 641.88,560.76 c 20.63,23.4 44.27,46.71 65.53,69.84 c -5.44,2.29 -12.99,4.53 -16.43,9.66 c -9.51,-11.88 -19.12,-23.67 -28.82,-35.39 c -9.47,-11.15 -18.73,-22.46 -27.78,-33.95 c -0.39,0.13 -0.57,0.43 -0.53,0.89 c -0.93,-0.86 -1.13,-1.89 -0.59,-3.08 c 1.78,-1.62 6.34,-8.01 8.62,-7.97 Z"/></g>
<g><path fill="#5d9cf8" stroke="#5d9cf8" stroke-width="0.5" d="M 952.18,462.84 c 24.21,13.65 48.49,27.17 72.84,40.56 c 0.47,0.55 1.03,1 1.68,1.33 c 19.48,10.39 39.83,22.18 59.8,31.31 c 0.74,0.84 -0.1,1.14 -0.75,1.64 c -42.58,-14.4 -85.16,-28.81 -127.74,-43.24 c -1.28,-0.27 -3.67,-1.26 -4.78,-0.11 c -0.71,-0.86 -1.51,-1.62 -2.41,-2.26 c -3.95,-1.69 -7.97,-3.22 -12.04,-4.6 c -1.84,-1.02 -3.6,-2.12 -5.28,-3.29 c 0.38,-0.18 0.69,-0.44 0.93,-0.77 c 0.84,-6.23 3.98,-10.93 9.4,-14.12 c 1.9,-0.74 3.83,-1.32 5.77,-1.74 c -0.7,-0.86 -0.88,-1.8 -0.56,-2.84 c 1.13,-0.5 2.18,-1.12 3.14,-1.87 Z"/></g>
<g><path fill="#cbdffd" stroke="#cbdffd" stroke-width="0.5" d="M 692.9,838.27 c 6.72,-0.3 13.86,-0.52 20.51,0.79 c 12.83,0.3 25.65,0.71 38.47,1.23 c -0.22,0.73 -0.17,1.47 0.13,2.2 c 2.38,4.94 4.77,9.88 7.17,14.82 c 2.72,6.36 5.48,14.75 9.31,20.35 c 0.53,-0.11 1.01,-0.33 1.46,-0.64 c 1.46,3.27 2.89,6.56 4.27,9.86 c -1.03,0.21 -1.89,-0.05 -2.6,-0.8 c -0.45,-2.12 -1.68,-4.41 -3.27,-5.93 c -1.99,1.26 -5.96,0.48 -4.76,4.34 c -0.51,0.33 -1.01,0.3 -1.5,-0.1 c -3.73,-3.48 -7.25,-7.15 -10.57,-11.01 c -1.59,1.89 -0.65,1.38 -2.24,-0.18 c -1.93,-0.09 0.4,2.21 -1.51,1.6 c -3.13,-2.74 -5.68,-6.26 -9.45,-8.22 c -0.67,0.19 -1.3,0.16 -1.9,-0.08 c 0.24,-0.5 0.22,-0.95 -0.07,-1.36 c -2,0.18 -3.92,-0.13 -5.75,-0.92 c -3.4,-2.9 -6.79,-5.8 -10.16,-8.72 c -2.52,-1.16 -5.13,-2.09 -7.81,-2.8 c -0.2,-0.36 -0.2,-0.75 -0.01,-1.17 c -0.47,-0.37 -0.96,-0.72 -1.45,-1.08 c -0.77,-3.93 -2.73,-7.12 -5.89,-9.57 c -0.74,-0.21 -1.34,0 -1.82,0.64 c -1.48,-1.16 -5.12,-0.48 -7.13,-1.53 c -1.29,-0.3 -2.44,-0.87 -3.43,-1.72 Z"/></g>
<g><path fill="#b7d3fd" d="M 837.14,499.56 c 20.79,0.1 41.58,0.54 62.36,1.33 c 4.51,0.51 19.4,-1.27 22.56,1.12 c -0.12,1.03 -0.34,2.03 -0.66,3.01 c 0.06,-0.84 -0.27,-1.44 -1,-1.81 c -2.96,0.29 -5.92,0.37 -8.9,0.25 c -24.33,-0.64 -48.67,-1.16 -73.01,-1.57 c -0.95,0.02 -1.82,-0.25 -2.6,-0.8 c 0.25,-0.65 0.66,-1.16 1.25,-1.53 Z M 813.99,544.71 c 30.87,0.78 61.74,1.42 92.62,1.91 c 1.94,0.34 1.22,1.91 -0.19,2.15 c -30.62,-0.31 -61.3,-1.51 -91.97,-1.71 c -0.75,0.04 -1.27,-0.27 -1.56,-0.94 c 0.27,-0.54 0.63,-1.01 1.1,-1.41 Z M 789.95,590.81 c 0.83,-0.26 1.69,-0.38 2.56,-0.38 c 31.66,0.61 63.33,1.16 94.99,1.63 c 2.74,0.16 7,-0.11 9.52,0.95 c -0.08,0.72 -0.32,1.36 -0.72,1.92 c -0.19,-0.34 -0.49,-0.53 -0.89,-0.55 c -1.95,0.33 -3.92,0.44 -5.91,0.32 c -24.33,-0.61 -48.67,-1.16 -73,-1.66 c -8.34,0.01 -16.68,-0.04 -25.01,-0.14 c -1.26,-0.11 -1.77,-0.8 -1.54,-2.09 Z M 202.13,679.3 c 42.52,0.9 85.21,5.44 127.75,6.65 c 3.82,0.52 7.59,1.31 11.29,2.37 c -0.9,1.54 -4.17,0.74 -5.67,0.91 c -36.66,-2.44 -73.33,-4.79 -110,-7.04 c -5.61,-0.27 -11.23,-0.42 -16.85,-0.47 c -0.78,-0.11 -2.58,-1.27 -2.71,0.26 c -1.26,-0.91 -2.53,-1.81 -3.81,-2.68 Z M 744.68,680.14 c 0.39,0.68 0.98,1.02 1.77,1.03 c 40.02,0.75 80.03,1.48 120.05,2.19 c 1.14,0.11 2.28,0.26 3.42,0.44 c -0.03,0.88 -0.39,1.61 -1.07,2.2 c -40.77,-1.16 -81.57,-2.14 -122.36,-2.07 c -0.95,0.02 -1.71,-0.34 -2.31,-1.08 c -0.24,-1.01 -0.08,-1.92 0.5,-2.71 Z"/></g>
<g><path fill="#4890f6" stroke="#4890f6" stroke-width="0.5" d="M 942.26,458.26 c 0.4,-0.3 0.85,-0.44 1.35,-0.43 c 2.75,1.86 5.6,3.53 8.57,5.01 c -0.96,0.75 -2.01,1.37 -3.14,1.87 c -0.32,1.04 -0.14,1.98 0.56,2.84 c -1.94,0.42 -3.87,1 -5.77,1.74 c -5.42,3.19 -8.56,7.89 -9.4,14.12 c -0.24,0.33 -0.55,0.59 -0.93,0.77 c 1.68,1.17 3.44,2.27 5.28,3.29 c 4.07,1.38 8.09,2.91 12.04,4.6 c 0.9,0.64 1.7,1.4 2.41,2.26 c -0.9,1.86 -1.49,3.81 -1.79,5.86 c -1.8,-0.27 -1.44,-2.29 -1.62,-3.6 c -0.47,-0.82 -1.09,-1.51 -1.85,-2.08 c -0.76,0.08 -1.52,0.2 -2.3,0.37 c -1.06,-0.56 -3.31,-1.28 -4.3,-0.37 c 0.24,0.48 0.24,0.93 -0.01,1.35 c -3.13,1.96 -4.15,1.88 -4.96,5.72 c 0.26,0.57 0.41,1.17 0.44,1.79 c -0.56,0.13 -1.13,0.22 -1.71,0.27 c -1.11,2.65 -4.16,4.94 -6.6,6.29 c -0.59,0.91 -0.6,1.8 -0.04,2.67 c 0.92,-0.57 1.39,-0.33 1.41,0.7 c -0.64,1.01 -1.42,1.9 -2.35,2.67 c -0.65,1.1 -1.23,2.24 -1.74,3.4 c -0.77,0.57 -1.56,1.13 -2.36,1.67 c -0.18,1.91 -0.65,3.74 -1.42,5.5 c -0.09,1.72 0.69,4.54 -1.56,5.16 c -0.42,-1.19 -0.75,-2.42 -0.98,-3.7 c -0.47,-0.67 -1.74,-1.42 -2.24,-0.34 c -0.89,3.5 -5.69,18.23 -5,20.65 c 2.57,4.19 2.77,7.74 -1.73,10.38 c -0.38,-0.39 -0.73,-0.81 -1.03,-1.26 c -1.32,2.53 -2.19,5.21 -2.59,8.05 c -1.12,3.39 -2.23,6.78 -3.3,10.17 c -0.34,-0.92 -0.66,-1.86 -0.98,-2.8 c 6.35,-22.59 12.61,-45.2 18.78,-67.83 c 0.32,-0.98 0.54,-1.98 0.66,-3.01 c 0.1,-0.37 0.21,-0.74 0.32,-1.11 c 1.54,-5.83 3.07,-11.66 4.58,-17.49 c 5.19,-8.32 10.29,-16.71 15.3,-25.15 Z M 662.16,604.87 c -1.7,3.51 -5.78,5.28 -6.42,10.44 c -0.29,0.43 -0.69,0.72 -1.19,0.88 c -6.65,-14.91 -13.55,-29.7 -20.7,-44.38 c -0.04,-0.46 0.14,-0.76 0.53,-0.89 c 9.05,11.49 18.31,22.8 27.78,33.95 Z M 452.13,853.58 c 13.89,9.62 27.82,19.18 41.78,28.7 c 1.32,0.9 2.63,1.8 3.94,2.71 c 16.8,11.56 33.54,23.2 50.23,34.92 c -5.41,0.63 -5.02,2.06 -8.66,5.61 c 0.98,1.56 1.74,3.24 2.26,5.02 c -0.74,1.36 -1.8,1.62 -3.18,0.78 c -0.14,0.88 -0.13,1.78 0.04,2.69 c -0.99,0.91 -2.04,1.76 -3.13,2.55 c 0.4,0.29 0.79,0.6 1.15,0.95 c -0.46,0.87 -0.25,1.54 0.61,2.01 c -17.15,10.95 -34.3,21.9 -51.46,32.84 c -1.44,0.73 -3.42,2.59 -4.75,0.62 c -0.35,-8.01 -8.69,-35.15 -10.64,-45.09 c -4.44,-16.98 -8.81,-33.98 -13.12,-51 c -1.49,-7.77 -4.57,-15.4 -5.07,-23.31 Z"/></g>
<g><path fill="#7aaffb" stroke="#7aaffb" stroke-width="0.5" d="M 640.01,924.99 c 0.07,0.73 -0.17,1.32 -0.71,1.77 c -5.88,-0.09 -11.75,0.08 -17.6,0.53 c -1.18,1.47 -2.3,2.99 -3.37,4.57 c -2.6,0.76 -3.88,2.92 -6.57,3.37 c -0.5,0.48 -1,0.96 -1.49,1.44 c -2.99,0.87 -2.12,0.93 -0.29,2.21 c -0.65,0.15 -1.3,0.29 -1.97,0.44 c 0.01,0.17 0.03,0.34 0.04,0.51 c -15.35,-4.04 -30.69,-8.11 -46.02,-12.22 c -0.74,-0.22 -1.35,-0.63 -1.83,-1.21 c 0.31,-0.37 0.72,-0.52 1.22,-0.45 c 26.2,-0.12 52.4,-0.44 78.59,-0.96 Z"/></g>
<g><path fill="#a9cbfd" stroke="#a9cbfd" stroke-width="0.5" d="M 707.41,630.6 c 5.97,6.36 11.93,12.73 17.87,19.12 c -8.75,1.18 -17.78,-2.08 -26.16,0.54 c -2.74,-3.32 -5.45,-6.65 -8.14,-10 c 3.44,-5.13 10.99,-7.37 16.43,-9.66 Z"/></g>
<g><path fill="#a3c7fd" stroke="#a3c7fd" stroke-width="0.5" d="M 926.96,483.41 c -1.51,5.83 -3.04,11.66 -4.58,17.49 c -12.06,-28.63 -25.12,-57.26 -38.77,-85.19 c -0.57,-1.17 -0.97,-2.39 -1.19,-3.67 c 0.21,-2.31 1.16,-4.28 2.85,-5.91 c 0.4,-0.65 0.9,-0.8 1.49,-0.44 c 8.16,16.76 16.5,33.42 25.03,50 c 2.27,3.29 13.55,27.2 15.17,27.72 Z M 725.28,649.72 c 5.72,5.95 11.33,11.99 16.83,18.15 c -0.62,0.5 -1.16,1.07 -1.63,1.71 c -10.24,4.04 -13.49,-4.56 -21.91,-5.46 c -1.68,0.17 -3.37,0.26 -5.06,0.25 c -1.04,0.73 0.91,1.84 -0.44,3.21 c -2.91,-3.64 -5.83,-7.26 -8.78,-10.86 c -1.7,-2.17 -3.43,-4.32 -5.17,-6.46 c 8.38,-2.62 17.41,0.64 26.16,-0.54 Z M 591.99,785.19 c 3.48,0.59 14.35,1.76 17.07,0.6 c 3.43,0.79 6.91,1.22 10.44,1.3 c 14.51,0.78 29.02,1.5 43.52,2.15 c 7.98,0.4 15.96,0.89 23.94,1.48 c 4.18,-0.11 8.36,-0.01 12.54,0.27 c 10.57,0.84 21.36,0.93 31.98,1.8 c 0.81,-0.3 1.12,-0.88 0.94,-1.74 c 0.75,0.76 0.86,1.6 0.35,2.52 c -0.31,0.57 -0.78,0.93 -1.4,1.09 c -7.11,-0.36 -14.22,-0.68 -21.34,-0.97 c -0.66,-0.7 -1.5,-1 -2.51,-0.91 c -5.74,-0.08 -14.71,0.86 -20.06,-0.68 c -4.33,1.01 -11.32,-0.57 -15.87,-0.73 c -7.38,0.72 -14.63,-1.37 -22.11,-0.57 c -9.34,-0.47 -18.66,-1.08 -27.98,-1.83 c -4.15,0.26 -9.48,-0.66 -13.38,0.06 c -0.39,-0.61 -0.96,-0.9 -1.74,-0.87 c -3.38,-0.15 -6.76,-0.15 -10.14,-0.01 c -1.9,-0.32 -3.32,-1.31 -4.25,-2.96 Z M 829.99,821.14 c 0.23,0.05 0.46,0.1 0.69,0.16 c 0.35,1.07 1.07,1.72 2.17,1.95 c -9.04,31.61 -18.48,63.48 -28.88,94.66 c -1.3,0 -2.11,-0.64 -2.43,-1.94 c 0.29,-0.93 0.59,-1.86 0.91,-2.78 c 4.52,-14.28 8.93,-28.59 13.24,-42.93 c 4.37,-15.77 9.07,-31.44 14.11,-47.01 c 0.15,-0.69 0.21,-1.4 0.19,-2.11 Z"/></g>
<g><path fill="#b5d1fd" d="M 389.39,443.66 c 0.67,0.22 1.36,0.33 2.07,0.35 c 46.18,0.86 92.37,1.81 138.56,2.85 c 0.48,0.33 0.92,0.71 1.3,1.14 c -0.12,0.45 -0.39,0.77 -0.83,0.95 c -25.18,0.5 -50.64,-1.24 -75.84,-1.21 c -1.97,-1.38 -1.84,1.38 -3.31,-0.39 c -19.82,-0.08 -40.01,-0.92 -59.83,-1.19 c -0.75,-0.05 -1.4,0.18 -1.95,0.67 c -0.54,-1.01 -0.59,-2.06 -0.17,-3.17 Z M 411.75,495.47 c 56.05,0.95 112.1,1.88 168.15,2.77 c 1.07,0.25 1.83,0.87 2.28,1.86 c -0.4,0.44 -0.9,0.61 -1.51,0.51 c -56.29,-1.01 -112.58,-1.95 -168.87,-2.82 c -0.93,0 -0.27,-1.93 -0.05,-2.32 Z M 432.32,545.78 c 0.92,0.73 1.98,1.09 3.16,1.09 c 65.09,0.24 130.33,2.11 195.43,3.09 c 0.38,0.46 0.8,0.88 1.25,1.27 c -0.41,0.56 -0.96,0.81 -1.66,0.77 c -64.99,-0.49 -130.05,-2.39 -195.03,-3 c -0.73,-0.06 -1.33,0.19 -1.78,0.75 c -0.89,0.25 -1.5,-3.27 -1.37,-3.97 Z M 767.26,635.78 c 38.94,0.75 77.88,1.55 116.83,2.4 c 0.02,1.34 -0.27,2.6 -0.87,3.78 c 0.15,-1.01 -0.25,-1.58 -1.21,-1.7 c -37.86,-0.77 -75.73,-1.41 -113.6,-1.93 c -0.91,-0.03 -1.48,-0.48 -1.71,-1.34 c 0.19,-0.41 0.37,-0.81 0.56,-1.21 Z M 759.18,727.21 c 30.34,-0.28 60.93,1.02 91.32,1.84 c 2.13,0.02 4.24,-0.04 6.36,-0.21 c 0.63,0.11 1.26,0.19 1.9,0.25 c 0.09,0.97 -0.03,1.92 -0.35,2.84 c -0.51,-0.57 -1.15,-0.84 -1.93,-0.83 c -7.81,0.06 -15.62,-0.12 -23.42,-0.52 c -21.84,-0.37 -43.7,-0.59 -65.56,-0.68 c -1.65,-0.04 -3.29,-0.19 -4.91,-0.44 c -0.45,0.28 -0.71,0.7 -0.76,1.25 c -0.94,-1.12 -1.82,-2.29 -2.65,-3.5 Z M 794.16,773.18 c 3.78,0.17 7.56,0.15 11.34,-0.08 c 12.81,0.9 25.63,1.23 38.47,1 c 0.74,0.27 1.43,0.63 2.08,1.07 c 0.21,1.39 -0.09,2.63 -0.89,3.74 c -0.06,-3.19 -0.96,-2.55 -3.26,-1.78 c -2.09,-0.55 -4.22,-0.83 -6.4,-0.85 c -12.01,-0.06 -24.02,-0.26 -36.03,-0.59 c -1.25,-0.25 -2.1,0.19 -2.55,1.32 c -0.81,-1.35 -1.73,-2.62 -2.76,-3.83 Z"/></g>
<g><path fill="#3c86f4" stroke="#3c86f4" stroke-width="0.5" d="M 548.08,919.91 c 1.83,1.54 8.78,5.12 9.02,7.41 c -6.76,3.87 -13.41,7.93 -19.93,12.2 c -0.86,-0.47 -1.07,-1.14 -0.61,-2.01 c -0.36,-0.35 -0.75,-0.66 -1.15,-0.95 c 1.09,-0.79 2.14,-1.64 3.13,-2.55 c -0.17,-0.91 -0.18,-1.81 -0.04,-2.69 c 1.38,0.84 2.44,0.58 3.18,-0.78 c -0.52,-1.78 -1.28,-3.46 -2.26,-5.02 c 3.64,-3.55 3.25,-4.98 8.66,-5.61 Z"/></g>
<g><path fill="#74a9fc" stroke="#74a9fc" stroke-width="0.5" d="M 968.1,421.09 c 0.72,0.5 0.9,1.17 0.53,2.02 c -6.74,10.1 -12.76,21.83 -18.37,32.63 c -0.49,0.86 -1.22,1.33 -2.22,1.41 c -1.39,-0.28 -2.75,-0.68 -4.06,-1.2 c 7.58,-11.94 15.62,-23.56 24.12,-34.86 Z"/></g>
<g><path fill="#eef3fe" d="M 845.16,778.91 c -4.03,14.8 -8.14,29.58 -12.31,44.34 c -1.1,-0.23 -1.82,-0.88 -2.17,-1.95 c 0.4,-1.31 0.85,-2.6 1.37,-3.87 c 0.38,-6.42 3.34,-10.92 5.04,-16.94 c 0.93,-6.66 1.53,-11.04 4.75,-17.18 c 0.18,-2.28 2.07,-4.18 0.06,-6.18 c 2.3,-0.77 3.2,-1.41 3.26,1.78 Z"/></g>
<g><path fill="#e3eefd" d="M 751.88,840.29 c 0.67,0.14 1.29,0.04 1.88,-0.3 c 5.47,12.31 10.87,24.66 16.19,37.03 c -0.45,0.31 -0.93,0.53 -1.46,0.64 c -3.83,-5.6 -6.59,-13.99 -9.31,-20.35 c -2.4,-4.94 -4.79,-9.88 -7.17,-14.82 c -0.3,-0.73 -0.35,-1.47 -0.13,-2.2 Z"/></g>
<g><path fill="#8fbcfd" stroke="#8fbcfd" stroke-width="0.5" d="M 343.29,340.11 c 0.25,1.4 0.74,2.69 1.49,3.87 c 7.1,16.08 14.27,32.14 21.5,48.17 c 0.68,0.69 0.38,3.84 1.36,3.64 c 5.16,10.33 16.39,40.32 21.75,47.87 c -0.42,1.11 -0.37,2.16 0.17,3.17 c 6.11,12.06 15.25,39.02 22.19,48.64 c -0.22,0.39 -0.88,2.32 0.05,2.32 c 5.99,15.05 13.56,33.8 20.52,47.99 c -0.13,0.7 0.48,4.22 1.37,3.97 c 6.56,16.21 13.32,32.33 20.28,48.37 c -0.04,0.82 0.27,1.4 0.93,1.76 c 3.12,7.7 16.92,44.93 21.24,48.49 c -0.2,0.45 -0.18,0.89 0.08,1.32 c 5.62,16.27 13.34,32.45 19.9,48.46 c 0.6,0.76 0.57,3.85 1.58,3.78 c 0.54,1.31 1.05,2.64 1.53,3.97 c -0.47,0.08 -0.8,0.34 -0.98,0.79 c 0.25,1.19 0,2.23 -0.77,3.13 c 0.81,3.89 2.38,6.7 -1.24,10 c -1.59,0.96 -3.19,1.9 -4.8,2.82 c -1.07,-1.11 -2.3,-2.01 -3.7,-2.7 c -1.26,-0.44 -2.54,-0.49 -3.83,-0.16 c -2.07,1.04 -3.99,2.32 -5.74,3.85 c 0.69,0.45 1.27,1.01 1.75,1.68 c -21.51,-6.2 -43.07,-12.22 -64.67,-18.08 c -1.53,-0.25 -1.42,-2.09 -1.94,-3.21 c -40.35,-156.82 -80.39,-313.73 -118.5,-471.11 c 0.26,-2.09 0.81,-2.17 1.65,-0.25 c 15.67,35.79 31.28,71.61 46.83,107.45 Z M 970.94,419.55 c 1.21,0.81 2.36,1.7 3.45,2.67 c 39.76,38.53 79.35,77.23 118.78,116.1 c 1,0.97 0.84,1.5 -0.49,1.57 c -2.34,-0.66 -4.64,-1.4 -6.93,-2.21 c 0.65,-0.5 1.49,-0.8 0.75,-1.64 c -19.97,-9.13 -40.32,-20.92 -59.8,-31.31 c -0.65,-0.33 -1.21,-0.78 -1.68,-1.33 c 1.02,-0.62 1.05,-1.23 0.08,-1.85 c -18.26,-9.79 -36.04,-21.01 -54.28,-30.93 c -3.01,-1.89 -6,-3.8 -8.99,-5.72 c -4.44,-2.3 -8.86,-4.61 -13.25,-6.95 c -0.33,-0.17 -0.51,-0.44 -0.54,-0.8 c 1,-0.08 1.73,-0.55 2.22,-1.41 c 5.61,-10.8 11.63,-22.53 18.37,-32.63 c 0.37,-0.85 0.19,-1.52 -0.53,-2.02 c 0.71,-0.96 1.66,-1.48 2.84,-1.54 Z"/></g>
<g><path fill="#7eb2fc" stroke="#7eb2fc" stroke-width="0.5" d="M 499.23,705.9 c 3.47,8.52 7.14,16.96 11,25.3 c 0.02,0.91 0.32,1.73 0.89,2.47 c -9.83,-1.79 -21.25,-5.96 -31.2,-8.36 c -0.48,-0.67 -1.06,-1.23 -1.75,-1.68 c 1.75,-1.53 3.67,-2.81 5.74,-3.85 c 1.29,-0.33 2.57,-0.28 3.83,0.16 c 1.4,0.69 2.63,1.59 3.7,2.7 c 1.61,-0.92 3.21,-1.86 4.8,-2.82 c 3.62,-3.3 2.05,-6.11 1.24,-10 c 0.77,-0.9 1.02,-1.94 0.77,-3.13 c 0.18,-0.45 0.51,-0.71 0.98,-0.79 Z"/></g>
<g><path fill="#e5effd" stroke="#e5effd" stroke-width="0.5" d="M 422.9,341.86 c -2.79,0.19 -5.59,0.25 -8.4,0.17 c -20.67,-0.69 -41.33,-1.36 -62,-2.02 c -3.08,-0.16 -6.15,-0.12 -9.21,0.1 c -15.55,-35.84 -31.16,-71.66 -46.83,-107.45 c -0.84,-1.92 -1.39,-1.84 -1.65,0.25 c -1.58,-0.2 -1.12,-4.09 -0.33,-4.81 c 2.15,1.53 4.26,3.1 6.35,4.72 c 41.88,35.01 82.57,71.36 122.07,109.04 Z M 424.12,343 c 11.36,10.74 22.66,21.57 33.89,32.49 c 2.09,2.06 19.04,18.27 18.99,19.12 c -6.51,0.36 -13.01,0.22 -19.51,-0.43 c -30.41,-0.68 -60.82,-1.36 -91.21,-2.03 c -7.23,-16.03 -14.4,-32.09 -21.5,-48.17 c -0.03,-1.2 0.54,-1.82 1.72,-1.87 c 25,0.61 50.01,1.29 75.02,2.03 c 1.17,0.22 2.03,-0.16 2.6,-1.14 Z M 479.09,396.26 c 17.25,16.5 34.28,33.44 50.93,50.6 c -46.19,-1.04 -92.38,-1.99 -138.56,-2.85 c -0.71,-0.02 -1.4,-0.13 -2.07,-0.35 c -5.36,-7.55 -16.59,-37.54 -21.75,-47.87 c -0.11,-1.3 0.5,-1.91 1.82,-1.83 c 30.67,1.01 61.35,1.92 92.04,2.7 c 5.34,0.06 10.68,0.13 16.01,0.23 c 0.65,0.06 1.17,-0.16 1.58,-0.63 Z M 970.94,419.55 c -1.18,0.06 -2.13,0.58 -2.84,1.54 c -8.5,11.3 -16.54,22.92 -24.12,34.86 c -0.97,0.45 -1.55,1.22 -1.72,2.31 c -5.01,8.44 -10.11,16.83 -15.3,25.15 c -1.62,-0.52 -12.9,-24.43 -15.17,-27.72 c -8.53,-16.58 -16.87,-33.24 -25.03,-50 c -0.59,-0.36 -1.09,-0.21 -1.49,0.44 c -1.51,-3.32 3.27,-1.59 4.71,-1.56 c 26.85,4.43 53.66,9.4 80.54,13.4 c 0.42,0.45 0.56,0.97 0.42,1.58 Z M 531.32,448 c 7.43,7.35 46.53,43.91 48.58,50.24 c -56.05,-0.89 -112.1,-1.82 -168.15,-2.77 c -6.94,-9.62 -16.08,-36.58 -22.19,-48.64 c 0.55,-0.49 1.2,-0.72 1.95,-0.67 c 19.82,0.27 40.01,1.11 59.83,1.19 c 1.47,1.77 1.34,-0.99 3.31,0.39 c 25.2,-0.03 50.66,1.71 75.84,1.21 c 0.44,-0.18 0.71,-0.5 0.83,-0.95 Z M 411.8,497.79 c 56.29,0.87 112.58,1.81 168.87,2.82 c 0.61,0.1 1.11,-0.07 1.51,-0.51 c 0.58,0.04 1.07,0.3 1.44,0.76 c 15.87,16.28 31.63,32.64 47.29,49.1 c -65.1,-0.98 -130.34,-2.85 -195.43,-3.09 c -1.18,0 -2.24,-0.36 -3.16,-1.09 c -6.96,-14.19 -14.53,-32.94 -20.52,-47.99 Z M 632.16,551.23 c 3.1,3.57 6.04,6.69 9.72,9.53 c -2.28,-0.04 -6.84,6.35 -8.62,7.97 c -0.54,1.19 -0.34,2.22 0.59,3.08 c 7.15,14.68 14.05,29.47 20.7,44.38 c 10.58,23.23 21.06,46.51 31.44,69.84 c 1.72,4 3.45,8 5.21,11.98 c 0.03,2.64 -2.05,1.85 -3.7,1.49 c -3,0.15 -6.01,0.13 -9.01,-0.07 c -40.92,-2.46 -82.06,-5.21 -123.01,-6.43 c -3.98,0.24 0.73,-4.64 1.4,-5.57 c 6.46,-12.3 15.74,-22.65 22.14,-34.97 c 0.62,-1.05 1.46,-1.85 2.52,-2.41 c 22.65,1.26 45.3,2.53 67.96,3.81 c 6.03,0.03 12.04,0.31 18.05,0.86 c 3.03,0.25 2.86,-2.3 0.28,-2.46 c -27.81,-1.22 -55.61,-2.57 -83.42,-4.04 c -0.63,0.06 -1.08,-0.19 -1.36,-0.74 c 4.35,-6.72 8.54,-13.56 12.58,-20.51 c 10.35,-15.36 20.04,-31.09 30.12,-46.59 c 0.62,-0.87 1.05,-1.81 1.29,-2.82 c -0.62,-0.48 -1.19,-0.38 -1.68,0.3 c -5.16,6.82 -10.41,13.56 -15.76,20.23 c -2.08,3.14 -6.97,0.97 -10.1,1.21 c -45.67,-0.27 -91.32,-1.5 -137,-1.59 c -2.85,-0.04 -5.7,0.1 -8.53,0.41 c -6.96,-16.04 -13.72,-32.16 -20.28,-48.37 c 0.45,-0.56 1.05,-0.81 1.78,-0.75 c 64.98,0.61 130.04,2.51 195.03,3 c 0.7,0.04 1.25,-0.21 1.66,-0.77 Z M 454.9,599.88 c 50.3,0.57 100.57,1.23 150.83,1.98 c 0.16,0.42 0.1,0.82 -0.17,1.19 c -6.76,8.58 -13.48,17.2 -20.16,25.85 c -4.52,6.14 -9.64,14.87 -14.99,19.98 c -28.96,-0.52 -57.93,-0.92 -86.91,-1.22 c -1.87,0.24 -5.9,-0.5 -7.36,0.71 c -4.32,-3.56 -18.12,-40.79 -21.24,-48.49 Z M 329.88,685.95 c -42.54,-1.21 -85.23,-5.75 -127.75,-6.65 c -12.99,-9 -25.92,-18.07 -38.81,-27.2 c -0.77,-0.31 -1.3,-0.08 -1.59,0.69 c -1.18,-0.28 -4.37,-2.97 -2.32,-3.93 c 4.83,0.86 9.7,1.75 14.59,2.66 c 51.54,10.47 102.82,23.35 154.36,33.53 c 0.68,0.04 1.18,0.34 1.52,0.9 Z M 476.22,649.69 c 30.38,0.48 60.76,1 91.14,1.57 c 0.61,0.52 0.66,1.12 0.15,1.8 c -4.1,4.85 -7.45,9.59 -10.78,14.98 c -2.88,3.53 -21.45,27.69 -21.71,29.98 c -2.5,0.19 -5.01,0.31 -7.52,0.37 c -10.46,-0.3 -20.92,-0.38 -31.38,-0.24 c -6.56,-16.01 -14.28,-32.19 -19.9,-48.46 Z M 341.17,688.32 c 23.81,5.75 47.55,11.81 71.22,18.17 c 0.5,-0.73 0.81,-1.56 0.92,-2.47 c 0.52,1.12 0.41,2.96 1.94,3.21 c 21.6,5.86 43.16,11.88 64.67,18.08 c 9.95,2.4 21.37,6.57 31.2,8.36 c 5.59,2.98 11.6,3 17.02,6.63 c 0.18,0.94 0.78,1.45 1.79,1.54 c 0.76,0.6 3.26,2.1 0.68,2.58 c -84.01,-5.24 -168.05,-10.77 -252.12,-15.3 c -1.07,-0.04 -1.88,0.41 -2.41,1.36 c -2.1,-1.2 -4.15,-2.49 -6.15,-3.87 c -21.24,-15 -42.58,-29.88 -63.99,-44.63 c 0.13,-1.53 1.93,-0.37 2.71,-0.26 c 5.62,0.05 11.24,0.2 16.85,0.47 c 36.67,2.25 73.34,4.6 110,7.04 c 1.5,-0.17 4.77,0.63 5.67,-0.91 Z M 586.93,696.76 c 29.53,1.45 59.05,2.92 88.57,4.42 c 3.01,0.12 6.01,0.4 9,0.84 c 1.98,-0.03 3.97,-0.02 5.95,0.04 c 0.68,-0.28 1.23,-0.72 1.65,-1.33 c 6.92,14.66 13.63,29.42 20.16,44.26 c -0.06,0.7 -0.32,1.29 -0.78,1.79 c -2.97,-0.4 -5.97,-0.67 -8.98,-0.81 c -23.9,-1.28 -47.81,-2.54 -71.72,-3.78 c 0.4,-0.66 0.99,-1.01 1.78,-1.04 c 1.93,-0.1 12.25,0.06 13.07,-0.63 c -1.46,-0.72 -2.91,-1.48 -4.33,-2.3 c -1.7,-1.22 -3.02,-2.77 -3.97,-4.62 c -0.44,0.04 -0.84,-0.03 -1.21,-0.23 c -4.49,-11.42 -5.71,-12.21 -17.31,-8.71 c -0.94,-0.04 -4.14,0.95 -3.66,-0.9 c 0.56,-0.16 1.11,-0.31 1.67,-0.45 c -1.06,-3.88 -4,-0.25 -5.46,-1.76 c 1.28,-5.52 -0.36,-9.91 -4.91,-13.18 c -0.27,0.46 -0.59,0.88 -0.95,1.25 c -2.4,-2.76 -6.76,-3.97 -10.25,-4.65 c -0.21,-0.57 -0.45,-1.12 -0.73,-1.64 c -1.74,0.38 -2.79,1.44 -3.14,3.16 c 0.83,0.36 1.64,0.74 2.45,1.16 c 0.26,0.66 1.24,1.61 0.45,2.23 c -1.32,-0.43 -2.61,-0.55 -3.87,-0.37 c -0.66,-2.26 -1,-4.58 -1.02,-6.95 c 1.41,-1.04 2.82,-2.07 4.24,-3.08 c -1.41,-1.3 -6.06,0.35 -7.24,-1 c 0.17,-0.57 0.35,-1.15 0.54,-1.72 Z M 510.23,731.2 c -3.86,-8.34 -7.53,-16.78 -11,-25.3 c -0.48,-1.33 -0.99,-2.66 -1.53,-3.97 c -0.16,-1.33 0.44,-1.93 1.8,-1.8 c 10.46,0.55 20.98,0.29 31.41,0.29 c 1.41,-0.29 1.1,1.63 0.38,2.26 c -7.46,9.11 -13.83,19.31 -21.06,28.52 Z M 591.99,785.19 c 0.93,1.65 2.35,2.64 4.25,2.96 c 2.19,1.84 4.46,3.59 6.8,5.27 c 1.06,0.92 0.9,1.45 -0.48,1.6 c -83.33,-3.84 -166.68,-10.31 -250.06,-14.45 c -1.18,0.02 -2.31,0.26 -3.4,0.71 c -23.84,-16.24 -47.54,-32.68 -71.11,-49.31 c 0.23,-0.63 0.69,-0.88 1.36,-0.77 c 3.02,1.11 6.93,0.31 10.15,0.7 c 82.6,5.2 165.3,9.81 247.84,15.51 c 1.52,0.65 2.95,1.45 4.3,2.41 c 11.83,9.42 24.67,17.32 36.72,26.43 c 3.44,1.91 10.56,7.73 13.63,8.94 Z M 351.75,783.16 c 0.87,-0.33 1.78,-0.43 2.71,-0.3 c 84.69,4.68 169.38,9.83 254.04,15.12 c 1.79,0.79 3.47,1.77 5.06,2.94 c 15.14,10.97 30.39,21.78 45.75,32.44 c 0.44,0.38 0.94,0.52 1.51,0.41 c 0.82,2 4.6,3.16 6.28,4.51 c 0.32,1.36 6.72,5.07 8.19,5.89 c 0.54,0.46 0.59,0.96 0.15,1.48 c -71.64,-4.13 -143.28,-8.25 -214.94,-12.36 c -11,-0.56 -22,-1.06 -33,-1.51 c -1.87,-0.2 -3.67,0.03 -5.39,0.71 c -12.94,-9.06 -25.91,-18.07 -38.91,-27.03 c -10.53,-7.37 -21.02,-14.8 -31.45,-22.3 Z M 424.94,834.17 c 1.27,-0.63 10.38,0.15 12.56,0.03 c 80.68,4.64 161.36,9.19 242.04,13.65 c 0.8,0.08 1.52,0.37 2.16,0.85 c 17.08,11.95 34.12,23.96 51.12,36.03 c 1.34,1.08 2.81,1.92 4.42,2.53 c 0.03,0.24 0.14,0.45 0.33,0.62 c 2.54,1.82 5.11,3.59 7.72,5.3 c 0.93,1.02 0.72,1.57 -0.64,1.64 c -82.7,-4.56 -165.42,-9.13 -248.15,-13.72 c -1.04,0 -1.91,0.39 -2.59,1.18 c -13.96,-9.52 -27.89,-19.08 -41.78,-28.7 c -9.13,-6.38 -18.2,-12.85 -27.19,-19.41 Z M 787.21,922.82 c -38.07,0.32 -76.14,0.78 -114.21,1.38 c -5.01,0.08 -10.01,0.24 -15.01,0.49 c -5.99,0.13 -11.99,0.23 -17.98,0.3 c -26.19,0.52 -52.39,0.84 -78.59,0.96 c -0.5,-0.07 -0.91,0.08 -1.22,0.45 c 0.48,0.58 1.09,0.99 1.83,1.21 c -1.68,0.58 -3.32,0.48 -4.93,-0.29 c -0.24,-2.29 -7.19,-5.87 -9.02,-7.41 c -16.69,-11.72 -33.43,-23.36 -50.23,-34.92 c -0.36,-0.59 -0.26,-1.05 0.31,-1.38 c 2.78,0.19 5.56,0.28 8.34,0.27 c 81.27,4.63 162.54,9.13 243.83,13.49 c 6.81,3.21 12.52,8.88 19.29,12.47 c 5.57,4.28 10.44,8.15 16.83,11.2 c 0.54,0.47 0.79,1.06 0.76,1.78 Z"/></g>
<g><path fill="#b8d4fd" stroke="#b8d4fd" stroke-width="0.5" d="M 691.2,698.01 c 0.49,0.85 0.79,1.76 0.9,2.72 c -0.42,0.61 -0.97,1.05 -1.65,1.33 c -1.98,-0.06 -3.97,-0.07 -5.95,-0.04 c -2.99,-0.44 -5.99,-0.72 -9,-0.84 c -29.52,-1.5 -59.04,-2.97 -88.57,-4.42 c -11.77,-0.82 -23.54,-1.3 -35.32,-1.46 c -1.63,-0.04 -2.29,3.77 -3.55,4.56 c -0.25,-0.7 -0.75,-1.13 -1.49,-1.27 c -3.86,0.04 -7.71,-0.15 -11.55,-0.57 c 0.26,-2.29 18.83,-26.45 21.71,-29.98 c 3.33,-5.39 6.68,-10.13 10.78,-14.98 c 0.51,-0.68 0.46,-1.28 -0.15,-1.8 c -30.38,-0.57 -60.76,-1.09 -91.14,-1.57 c -0.26,-0.43 -0.28,-0.87 -0.08,-1.32 c 1.46,-1.21 5.49,-0.47 7.36,-0.71 c 28.98,0.3 57.95,0.7 86.91,1.22 c 5.35,-5.11 10.47,-13.84 14.99,-19.98 c 6.68,-8.65 13.4,-17.27 20.16,-25.85 c 0.27,-0.37 0.33,-0.77 0.17,-1.19 c -50.26,-0.75 -100.53,-1.41 -150.83,-1.98 c -0.66,-0.36 -0.97,-0.94 -0.93,-1.76 c 2.83,-0.31 5.68,-0.45 8.53,-0.41 c 45.68,0.09 91.33,1.32 137,1.59 c 3.13,-0.24 8.02,1.93 10.1,-1.21 c 5.35,-6.67 10.6,-13.41 15.76,-20.23 c 0.49,-0.68 1.06,-0.78 1.68,-0.3 c -0.24,1.01 -0.67,1.95 -1.29,2.82 c -10.08,15.5 -19.77,31.23 -30.12,46.59 c -4.04,6.95 -8.23,13.79 -12.58,20.51 c 0.28,0.55 0.73,0.8 1.36,0.74 c 27.81,1.47 55.61,2.82 83.42,4.04 c 2.58,0.16 2.75,2.71 -0.28,2.46 c -6.01,-0.55 -12.02,-0.83 -18.05,-0.86 c -22.66,-1.28 -45.31,-2.55 -67.96,-3.81 c -1.06,0.56 -1.9,1.36 -2.52,2.41 c -6.4,12.32 -15.68,22.67 -22.14,34.97 c -0.67,0.93 -5.38,5.81 -1.4,5.57 c 40.95,1.22 82.09,3.97 123.01,6.43 c 3,0.2 6.01,0.22 9.01,0.07 c 1.65,0.36 3.73,1.15 3.7,-1.49 Z M 496.12,698.15 c 10.46,-0.14 20.92,-0.06 31.38,0.24 c 2.51,-0.06 5.02,-0.18 7.52,-0.37 c -0.43,0.6 -0.92,1.14 -1.49,1.61 c 0.73,2.74 11.04,0.04 13.25,1.36 c -1.32,4.62 -6.46,10.73 -9.04,15 c -4.24,6.26 -8.41,12.58 -12.5,18.97 c -0.37,0.72 -0.23,1.31 0.43,1.75 c 14.89,0.57 31.67,2.46 46.42,1.89 c 1.51,1.45 9.55,0.02 12.41,1.34 c 15.4,0.25 30.87,1.66 46.28,2.25 c 23.91,1.24 47.82,2.5 71.72,3.78 c 3.01,0.14 6.01,0.41 8.98,0.81 c 0.46,-0.5 0.72,-1.09 0.78,-1.79 c 0.65,0.89 0.89,1.87 0.71,2.94 c -0.55,0.25 -0.91,0.65 -1.08,1.23 c -7.99,-1.59 -17.12,-0.99 -25.39,-1.98 c -30.85,-1.43 -61.69,-2.92 -92.53,-4.46 c -18.02,-0.97 -36.48,-2.5 -54.52,-2.41 c -3.77,-0.77 -7.54,-0.77 -11.31,-0.01 c -5.42,-3.63 -11.43,-3.65 -17.02,-6.63 c -0.57,-0.74 -0.87,-1.56 -0.89,-2.47 c 7.23,-9.21 13.6,-19.41 21.06,-28.52 c 0.72,-0.63 1.03,-2.55 -0.38,-2.26 c -10.43,0 -20.95,0.26 -31.41,-0.29 c -1.36,-0.13 -1.96,0.47 -1.8,1.8 c -1.01,0.07 -0.98,-3.02 -1.58,-3.78 Z M 349.1,781.28 c 1.09,-0.45 2.22,-0.69 3.4,-0.71 c 83.38,4.14 166.73,10.61 250.06,14.45 c 1.38,-0.15 1.54,-0.68 0.48,-1.6 c -2.34,-1.68 -4.61,-3.43 -6.8,-5.27 c 3.38,-0.14 6.76,-0.14 10.14,0.01 c 0.78,-0.03 1.35,0.26 1.74,0.87 c 0.17,0.69 0.62,1.04 1.36,1.04 c 3.4,-0.1 3.64,-0.37 5.64,2.27 c 3.4,2.57 7.42,3.86 11.06,5.98 c 5.72,8.07 10.75,8.52 19.15,12.91 c 4.82,7.25 13.15,6.08 17.87,14.05 c 6.36,1.85 10.69,2.31 14.82,8.11 c 1.71,0.77 8.28,-0.3 8.92,1.38 c -2.11,1.12 -14.38,-0.46 -17.44,-0.82 c -2.93,-0.06 -5.83,-0.12 -8.68,-0.18 c -0.57,0.11 -1.07,-0.03 -1.51,-0.41 c -15.36,-10.66 -30.61,-21.47 -45.75,-32.44 c -1.59,-1.17 -3.27,-2.15 -5.06,-2.94 c -84.66,-5.29 -169.35,-10.44 -254.04,-15.12 c -0.93,-0.13 -1.84,-0.03 -2.71,0.3 c -0.95,-0.54 -1.83,-1.17 -2.65,-1.88 Z M 422.11,832.49 c 1.72,-0.68 3.52,-0.91 5.39,-0.71 c 11,0.45 22,0.95 33,1.51 c 71.66,4.11 143.3,8.23 214.94,12.36 c 0.44,-0.52 0.39,-1.02 -0.15,-1.48 c -1.47,-0.82 -7.87,-4.53 -8.19,-5.89 c 0.83,-1.1 0.55,-2.08 2.24,-2.01 c 7.39,0.73 14.79,0.86 22.19,0.39 c 2.1,-0.16 8.16,1.35 9.6,-0.47 c 3.79,-0.19 7.6,-0.24 11.42,-0.16 c 11.84,1.06 26.59,2.14 38.21,1.95 c 1.06,0.75 1.6,0.44 1.6,-0.94 c 0.64,0.89 1.11,1.87 1.4,2.95 c -0.59,0.34 -1.21,0.44 -1.88,0.3 c -12.82,-0.52 -25.64,-0.93 -38.47,-1.23 c -6.65,-1.31 -13.79,-1.09 -20.51,-0.79 c -2,-0.31 -5.79,-0.89 -7.51,0.24 c 0.89,0.98 1.68,2.04 2.39,3.17 c 2.59,2.64 6.72,3.3 10.14,4.17 c 8.2,2.6 6.27,17.04 16.42,13.31 c 0.02,0.6 0.13,1.19 0.33,1.75 c 1.2,1.02 2.46,1.16 3.79,0.4 c 0.9,1.91 1.97,3.73 3.23,5.47 c 0.99,1.24 2.04,2.41 3.15,3.52 c 7.21,3.04 13.04,3.26 17.37,11.05 c 0.49,0.37 0.97,0.75 1.42,1.15 c -1.01,0.42 -2.06,0.57 -3.17,0.46 c -1.51,0.42 -1.52,0.75 -0.02,0.97 c 1.54,-0.2 8.4,0.57 9.22,-0.51 c -1.43,-0.26 -2.86,-0.55 -4.3,-0.87 c 2.34,-1.44 6.74,-0.26 7.54,2.46 c -1.91,1.11 -11.2,-0.79 -14.3,-0.06 c -1.6,0.17 -4.73,-1.66 -5.78,-0.22 c -17,-12.07 -34.04,-24.08 -51.12,-36.03 c -0.64,-0.48 -1.36,-0.77 -2.16,-0.85 c -80.68,-4.46 -161.36,-9.01 -242.04,-13.65 c -2.18,0.12 -11.29,-0.66 -12.56,-0.03 c -1.01,-0.45 -1.95,-1.01 -2.83,-1.68 Z"/></g>
<g><path fill="#c2d9fd" stroke="#c2d9fd" stroke-width="0.5" d="M 692.9,838.27 c 0.99,0.85 2.14,1.42 3.43,1.72 c 2.01,1.05 5.65,0.37 7.13,1.53 c 0.48,-0.64 1.08,-0.85 1.82,-0.64 c 3.16,2.45 5.12,5.64 5.89,9.57 c 0.49,0.36 0.98,0.71 1.45,1.08 c -0.19,0.42 -0.19,0.81 0.01,1.17 c 2.68,0.71 5.29,1.64 7.81,2.8 c 3.37,2.92 6.76,5.82 10.16,8.72 c 1.83,0.79 3.75,1.1 5.75,0.92 c 0.29,0.41 0.31,0.86 0.07,1.36 c 0.6,0.24 1.23,0.27 1.9,0.08 c 3.77,1.96 6.32,5.48 9.45,8.22 c 1.91,0.61 -0.42,-1.69 1.51,-1.6 c 1.59,1.56 0.65,2.07 2.24,0.18 c 3.32,3.86 6.84,7.53 10.57,11.01 c 0.49,0.4 0.99,0.43 1.5,0.1 c -1.2,-3.86 2.77,-3.08 4.76,-4.34 c 1.59,1.52 2.82,3.81 3.27,5.93 c -2.36,0.06 -4.74,0.12 -7.12,0.19 c -1.66,-0.29 -3.32,-0.53 -5,-0.74 c -2.26,0.45 -4.46,0.28 -6.6,-0.52 c -0.8,-2.72 -5.2,-3.9 -7.54,-2.46 c 1.44,0.32 2.87,0.61 4.3,0.87 c -0.82,1.08 -7.68,0.31 -9.22,0.51 c -1.5,-0.22 -1.49,-0.55 0.02,-0.97 c 1.11,0.11 2.16,-0.04 3.17,-0.46 c -0.45,-0.4 -0.93,-0.78 -1.42,-1.15 c -4.33,-7.79 -10.16,-8.01 -17.37,-11.05 c -1.11,-1.11 -2.16,-2.28 -3.15,-3.52 c -1.26,-1.74 -2.33,-3.56 -3.23,-5.47 c -1.33,0.76 -2.59,0.62 -3.79,-0.4 c -0.2,-0.56 -0.31,-1.15 -0.33,-1.75 c -10.15,3.73 -8.22,-10.71 -16.42,-13.31 c -3.42,-0.87 -7.55,-1.53 -10.14,-4.17 c -0.71,-1.13 -1.5,-2.19 -2.39,-3.17 c 1.72,-1.13 5.51,-0.55 7.51,-0.24 Z"/></g>
<g><path fill="#e2edfd" stroke="#e2edfd" stroke-width="0.5" d="M 882.42,412.04 c 0.22,1.28 0.62,2.5 1.19,3.67 c 13.65,27.93 26.71,56.56 38.77,85.19 c -0.11,0.37 -0.22,0.74 -0.32,1.11 c -3.16,-2.39 -18.05,-0.61 -22.56,-1.12 c -20.78,-0.79 -41.57,-1.23 -62.36,-1.33 c 0.23,-1.52 0.74,-2.95 1.53,-4.27 c 13.56,-26.19 27.04,-52.41 40.45,-78.67 c 0.78,-1.77 1.88,-3.29 3.3,-4.58 Z M 835.89,501.09 c 0.78,0.55 1.65,0.82 2.6,0.8 c 24.34,0.41 48.68,0.93 73.01,1.57 c 2.98,0.12 5.94,0.04 8.9,-0.25 c 0.73,0.37 1.06,0.97 1,1.81 c -6.17,22.63 -12.43,45.24 -18.78,67.83 c -1.96,6.69 -3.83,13.41 -5.6,20.16 c -2.52,-1.06 -6.78,-0.79 -9.52,-0.95 c -31.66,-0.47 -63.33,-1.02 -94.99,-1.63 c -0.87,0 -1.73,0.12 -2.56,0.38 c 7.63,-14.91 15.28,-29.81 22.94,-44.69 c 0.29,0.67 0.81,0.98 1.56,0.94 c 30.67,0.2 61.35,1.4 91.97,1.71 c 1.41,-0.24 2.13,-1.81 0.19,-2.15 c -30.88,-0.49 -61.75,-1.13 -92.62,-1.91 c 1.49,-4.39 20.29,-42.95 21.9,-43.62 Z M 789.95,590.81 c -0.23,1.29 0.28,1.98 1.54,2.09 c 8.33,0.1 16.67,0.15 25.01,0.14 c 24.33,0.5 48.67,1.05 73,1.66 c 1.99,0.12 3.96,0.01 5.91,-0.32 c 0.4,0.02 0.7,0.21 0.89,0.55 c -3.82,14.49 -7.89,28.91 -12.21,43.25 c -38.95,-0.85 -77.89,-1.65 -116.83,-2.4 c 7.75,-14.9 15.31,-29.89 22.69,-44.97 Z M 766.7,636.99 c 0.23,0.86 0.8,1.31 1.71,1.34 c 37.87,0.52 75.74,1.16 113.6,1.93 c -1.96,5.45 -3.32,10.82 -5.1,16.29 c 0.27,1.47 -0.08,2.78 -1.05,3.91 c -1.12,6.81 -3.71,13.01 -5.16,19.62 c -0.61,1.3 -1.89,2.27 -0.78,3.72 c -1.14,-0.18 -2.28,-0.33 -3.42,-0.44 c -40.02,-0.71 -80.03,-1.44 -120.05,-2.19 c -0.79,-0.01 -1.38,-0.35 -1.77,-1.03 c 0.96,-2.32 2.84,-3.86 1.93,-6.56 c 4.63,-4.42 15.92,-28.91 19.36,-36.11 c 0.16,-0.29 0.41,-0.45 0.73,-0.48 Z M 833.06,730.58 c 7.8,0.4 15.61,0.58 23.42,0.52 c 0.78,-0.01 1.42,0.26 1.93,0.83 c -4.05,14.44 -8.16,28.85 -12.36,43.24 c -0.65,-0.44 -1.34,-0.8 -2.08,-1.07 c 0.39,-2.49 0.67,-4.99 0.82,-7.5 c -0.58,-0.45 -1.25,-0.56 -2,-0.32 c -3.37,-1.26 -6.35,-3.14 -8.93,-5.64 c -3.14,-3.22 -6.25,-6.46 -9.35,-9.71 c -0.49,-0.54 -0.5,-1.05 -0.01,-1.53 c 3.03,0.98 3.01,2.84 3.98,-1.22 c -0.36,-0.37 -0.77,-0.66 -1.23,-0.88 c -2.37,-0.17 -4.68,-0.64 -6.93,-1.42 c -1.24,-3.81 -1.52,0.51 -3.97,0.85 c -0.76,-0.26 -1.49,-0.61 -2.19,-1.05 c 1.53,-1.48 2.25,-2.26 -0.1,-3.16 c -0.68,0.02 -1.32,-0.04 -1.92,-0.2 c 1.04,-1.88 2.83,-3.04 0.76,-5.2 c -0.57,0.5 -1.14,0.56 -1.72,0.17 c 0.21,-1.71 0.97,-1.84 0.19,-3.77 c 0.52,-0.92 0.24,-1.4 -0.84,-1.42 c -3.1,-0.06 -6.18,-0.25 -9.22,-0.56 c 0.63,-0.4 1.33,-0.56 2.1,-0.46 c 9.03,0.01 18.06,0.04 27.1,0.09 c 0.91,0.05 1.76,-0.15 2.55,-0.59 Z"/></g>
<g><path fill="#d6e6fd" stroke="#d6e6fd" stroke-width="0.5" d="M 833.06,730.58 c -0.79,0.44 -1.64,0.64 -2.55,0.59 c -9.04,-0.05 -18.07,-0.08 -27.1,-0.09 c -0.77,-0.1 -1.47,0.06 -2.1,0.46 c 3.04,0.31 6.12,0.5 9.22,0.56 c 1.08,0.02 1.36,0.5 0.84,1.42 c 0.78,1.93 0.02,2.06 -0.19,3.77 c 0.58,0.39 1.15,0.33 1.72,-0.17 c 2.07,2.16 0.28,3.32 -0.76,5.2 c 0.6,0.16 1.24,0.22 1.92,0.2 c 2.35,0.9 1.63,1.68 0.1,3.16 c 0.7,0.44 1.43,0.79 2.19,1.05 c 2.45,-0.34 2.73,-4.66 3.97,-0.85 c 2.25,0.78 4.56,1.25 6.93,1.42 c 0.46,0.22 0.87,0.51 1.23,0.88 c -0.97,4.06 -0.95,2.2 -3.98,1.22 c -0.49,0.48 -0.48,0.99 0.01,1.53 c 3.1,3.25 6.21,6.49 9.35,9.71 c 2.58,2.5 5.56,4.38 8.93,5.64 c 0.75,-0.24 1.42,-0.13 2,0.32 c -0.15,2.51 -0.43,5.01 -0.82,7.5 c -12.84,0.23 -25.66,-0.1 -38.47,-1 c -3.78,0.23 -7.56,0.25 -11.34,0.08 c -3.68,-5.27 -7.55,-10.4 -11.6,-15.4 c -6.81,-9.09 -13.72,-18.12 -20.73,-27.07 c 0.05,-0.55 0.31,-0.97 0.76,-1.25 c 1.62,0.25 3.26,0.4 4.91,0.44 c 21.86,0.09 43.72,0.31 65.56,0.68 Z M 841.9,777.13 c 2.01,2 0.12,3.9 -0.06,6.18 c -3.22,6.14 -3.82,10.52 -4.75,17.18 c -1.7,6.02 -4.66,10.52 -5.04,16.94 c -0.52,1.27 -0.97,2.56 -1.37,3.87 c -0.23,-0.06 -0.46,-0.11 -0.69,-0.16 c -3.58,-4.84 -7.22,-9.63 -10.91,-14.38 c -7.33,-9.96 -14.72,-19.88 -22.16,-29.75 c 0.45,-1.13 1.3,-1.57 2.55,-1.32 c 12.01,0.33 24.02,0.53 36.03,0.59 c 2.18,0.02 4.31,0.3 6.4,0.85 Z"/></g>
<g><path fill="#609ff8" stroke="#609ff8" stroke-width="0.5" d="M 941.4,544.14 c -11.1,47.3 -22.14,94.62 -33.11,141.96 c -0.78,-0.2 -1.13,-0.7 -1.05,-1.5 c 1.29,-6.4 2.51,-12.8 3.67,-19.22 c 0.04,-0.43 -0.09,-0.77 -0.39,-1.03 c -0.36,0.42 -0.73,0.84 -1.1,1.25 c -1.16,-2.3 -0.38,-3.44 -3.21,-0.95 c -3.77,3.8 -7.46,7.65 -11.08,11.58 c -2.66,3.82 -0.45,8.85 -2.66,13.1 c -2.79,5.47 -6.44,10.58 -9.34,16.05 c -1.81,5.05 -3.57,10.13 -5.28,15.21 c -0.58,3.35 -1.19,6.68 -1.84,10.01 c -4.6,8.03 -10.7,16.16 -11.33,25.83 c -0.39,3.35 1.11,8.36 0,11.4 c -2.36,4.75 -6.47,7.31 -7.4,12.89 c -0.65,7.25 -2,12.55 -5.85,18.72 c 0.05,0.36 0.12,0.7 0.2,1.05 c -1.51,0.48 -2.94,1.15 -4.28,2 c 3.26,10.75 -5.24,14.69 -7.26,23.67 c -0.31,2.76 -0.5,5.53 -0.56,8.31 c -2.17,2 -1.58,1.43 0.24,3.22 c 0.25,0.7 0.17,1.36 -0.25,1.97 c -0.6,-0.93 -1.35,-1.71 -2.24,-2.36 c -0.14,-0.71 -0.39,-1.37 -0.77,-1.97 c -0.37,1.41 -0.69,2.83 -0.94,4.27 c -0.83,-0.81 -1.58,-1.69 -2.26,-2.64 c 0.37,4.8 2.47,8.98 1.4,13.94 c -0.8,3.44 -1.87,6.81 -3.21,10.08 c -0.23,0.83 -0.19,1.65 0.13,2.45 c -1.99,1.43 -1.51,1.57 -1.88,3.92 c -0.31,0.61 -2.59,1.49 -1.23,2.26 c 2.25,-1.12 1.59,2.66 1.24,3.73 c -1.15,0.98 -0.81,-1.11 -2.24,1.28 c -0.33,-0.44 -0.67,-0.87 -1.03,-1.28 c -1.25,1.41 -2.59,2.76 -4,4.06 c -6.04,7.08 2.37,14.33 -1.87,21.44 c -1.79,3.46 -5.16,6.37 -5.32,10.47 c -0.06,3.65 1.52,6.33 4.75,8.05 c 0.92,-0.26 1.63,0.01 2.12,0.81 c -12.14,19.91 -24.18,39.89 -36.11,59.93 c -0.69,-0.22 -0.98,-0.69 -0.88,-1.41 c 6.43,-19.44 13.06,-38.96 18.79,-58.78 c 10.4,-31.18 19.84,-63.05 28.88,-94.66 c 4.17,-14.76 8.28,-29.54 12.31,-44.34 c 0.8,-1.11 1.1,-2.35 0.89,-3.74 c 4.2,-14.39 8.31,-28.8 12.36,-43.24 c 0.32,-0.92 0.44,-1.87 0.35,-2.84 c 3.55,-12.32 7.02,-24.67 10.42,-37.05 c 1.43,-0.43 1.58,1.33 2.55,-0.69 c 1.75,-6.08 3.69,-11.37 5.87,-17.31 c 1.36,-6.83 2.47,-13 4.96,-19.61 c 0.97,-5.83 2.3,-11.58 3.99,-17.24 c 1.72,-4.83 6.26,-7.88 8.91,-12.19 c 2.18,-2.78 3.27,-9.82 6.12,-11.46 c -0.09,-0.34 -0.12,-0.68 -0.09,-1.03 c 5.33,-4.54 5.55,-12.87 -2,-15.19 c -1.59,0.65 -1.45,-0.16 -1.2,-1.67 c 1.17,-3.39 1.13,-2.13 3.09,-1.12 c 2.58,-0.12 4.56,-1.29 5.93,-3.5 c 3.91,-5.88 9.98,-13.38 10.34,-20.52 c -0.42,-0.36 -0.84,-0.7 -1.28,-1.02 c 0.1,-1.91 0.99,-3.26 2.67,-4.04 c 1.14,-0.11 2.25,0.03 3.33,0.41 c 0.83,-0.95 1.57,-4.93 2.24,-6.33 c -0.48,-0.51 -1.04,-0.92 -1.69,-1.22 c 1.14,-9.47 20.91,-10.66 13.01,-22.38 c -0.15,-0.66 0.05,-1.17 0.61,-1.53 c 2.56,0.67 3.99,2.35 4.29,5.03 c 0.32,1.25 -1.54,4.56 0.57,4.71 Z M 704.29,656.72 c 2.95,3.6 5.87,7.22 8.78,10.86 c 4.23,5.1 8.32,10.32 12.27,15.66 c 2.75,3.2 5.41,6.48 7.98,9.84 c -0.17,0.44 -0.14,0.86 0.11,1.26 c 1.65,2.58 3.05,5.29 4.2,8.13 c -1.34,0.89 -2.58,1.92 -3.71,3.09 c -2.29,2.81 -2.68,5.86 -1.16,9.15 c 0.71,-0.71 1.42,-0.72 2.13,-0.03 c -0.16,1.64 0.11,3.22 0.81,4.75 c 2.03,5.83 4.34,11.54 6.93,17.13 c 0.81,3.31 1.42,6.66 1.84,10.04 c 0.71,5.06 3.81,6.74 7.11,9.98 c -0.36,0.34 -0.75,0.66 -1.18,0.95 c 0.09,2.47 0.69,4.81 1.8,7.02 c 0.67,1.26 1.39,2.46 2.16,3.6 c -0.82,2.02 -1.73,-2.04 -2.98,-0.65 c 1.7,4.76 3.4,9.52 5.08,14.28 c 0.43,2.74 -1.46,1.56 2.9,2.28 c 0.09,0.14 0.18,0.27 0.27,0.41 c -1.44,3.64 8.18,16.21 6.81,21.07 c 2.17,1.36 3.91,3.14 5.24,5.34 c 3.29,6.27 6.78,12.43 10.46,18.49 c 0.97,1.68 1.77,3.43 2.41,5.25 c 0.48,-0.33 0.91,-0.31 1.31,0.07 c 0.39,2.16 1.23,4.12 2.53,5.89 c 0.05,0.3 0.05,0.6 0.02,0.91 c 0.68,0.25 1.37,0.19 2.08,-0.18 c 0.13,0.12 0.27,0.25 0.4,0.38 c 0.13,1.99 0.34,3.97 0.62,5.91 c 1.56,-0.8 1.31,0.6 2.14,1.48 c 3.94,2.48 5.87,6.05 5.8,10.71 c 0.09,0.8 -0.23,1.37 -0.97,1.7 c 2.61,2.04 3.06,6.24 6.23,8.48 c 2.39,1.8 5.9,2.57 8.26,0.3 c 1.68,-1.97 1.83,-3.81 2.72,-0.01 c -4.31,14.34 -8.72,28.65 -13.24,42.93 c -2.96,-2.58 -9.24,-18.62 -11.93,-23.07 c -20.15,-42.51 -40.03,-85.14 -59.63,-127.89 c 0.42,-0.26 0.75,-0.6 0.99,-1.03 c 1.92,-3.42 1.46,-6.46 -1.38,-9.12 c -1.01,-0.87 -2.12,-1.46 -3.31,-1.78 c -1.47,-6.23 -3.98,-12.22 -6.7,-17.93 c -0.35,0.41 -0.7,0.82 -1.04,1.24 c -1.38,-0.92 1.32,-3.64 1.3,-4.88 c 0.25,-0.91 0.38,-1.83 0.38,-2.76 c -0.45,-6.08 -0.88,-12.15 -1.31,-18.21 c -0.53,-1.06 -0.95,0.32 -1.89,-0.27 c -0.92,-1.34 -1.97,-2.58 -3.16,-3.7 c -0.53,-0.15 -1.06,-0.31 -1.56,-0.49 c -0.37,-1.59 -0.7,-3.2 -0.99,-4.84 c -0.21,-1.35 -0.08,-2.67 0.39,-3.95 c -1.68,-1.97 -3.07,-7.08 -4.14,-9.7 c -1.59,-4.17 -1.7,-8.31 -4.15,-12.13 c -2.59,-2.44 -8.23,-4.74 -7.36,-9.06 c 0.82,-2.15 2.19,-3.86 4.13,-5.12 c 1.08,-0.65 2.15,-1.24 3.2,-1.78 Z"/></g>
<g><path fill="#deeafd" stroke="#deeafd" stroke-width="0.5" d="M 743.04,682.8 c 0.38,0.02 0.76,0.04 1.14,0.05 c 0.6,0.74 1.36,1.1 2.31,1.08 c 40.79,-0.07 81.59,0.91 122.36,2.07 c 0.06,0.76 -0.01,1.51 -0.22,2.24 c -3.94,13.11 -7.87,26.22 -11.8,39.34 c -0.11,0.42 -0.1,0.84 0.03,1.26 c -2.12,0.17 -4.23,0.23 -6.36,0.21 c -30.39,-0.82 -60.98,-2.12 -91.32,-1.84 c -7.29,-9.81 -14.47,-19.7 -21.56,-29.66 c -0.95,-4.51 4.27,-10.38 5.42,-14.75 Z M 586.93,696.76 c -0.19,0.57 -0.37,1.15 -0.54,1.72 c 1.18,1.35 5.83,-0.3 7.24,1 c -1.42,1.01 -2.83,2.04 -4.24,3.08 c 0.02,2.37 0.36,4.69 1.02,6.95 c 1.26,-0.18 2.55,-0.06 3.87,0.37 c 0.79,-0.62 -0.19,-1.57 -0.45,-2.23 c -0.81,-0.42 -1.62,-0.8 -2.45,-1.16 c 0.35,-1.72 1.4,-2.78 3.14,-3.16 c 0.28,0.52 0.52,1.07 0.73,1.64 c 3.49,0.68 7.85,1.89 10.25,4.65 c 0.36,-0.37 0.68,-0.79 0.95,-1.25 c 4.55,3.27 6.19,7.66 4.91,13.18 c 1.46,1.51 4.4,-2.12 5.46,1.76 c -0.56,0.14 -1.11,0.29 -1.67,0.45 c -0.48,1.85 2.72,0.86 3.66,0.9 c 11.6,-3.5 12.82,-2.71 17.31,8.71 c 0.37,0.2 0.77,0.27 1.21,0.23 c 0.95,1.85 2.27,3.4 3.97,4.62 c 1.42,0.82 2.87,1.58 4.33,2.3 c -0.82,0.69 -11.14,0.53 -13.07,0.63 c -0.79,0.03 -1.38,0.38 -1.78,1.04 c -15.41,-0.59 -30.88,-2 -46.28,-2.25 c -2.86,-1.32 -10.9,0.11 -12.41,-1.34 c -0.52,-0.35 -1.1,-0.56 -1.74,-0.6 c -1.67,-0.05 -3.32,-0.22 -4.95,-0.53 c 1.29,-0.29 2.6,-0.49 3.93,-0.59 c 1.01,-0.59 -0.8,-2.95 -1.48,-3.3 c -1.48,-0.53 -2.98,-0.88 -4.52,-1.04 c 0.34,-0.58 0.5,-1.19 0.47,-1.84 c -1.55,-1 -2.99,-2.14 -4.34,-3.43 c -3.65,-1.73 -6.88,-3.83 -10.96,-4.69 c -0.36,-0.5 -0.49,-1.07 -0.38,-1.7 c -1.47,-3.73 -4.18,-5.44 -8.13,-5.14 c -0.59,0.57 -1.1,1.2 -1.54,1.9 c -0.42,-0.46 -0.65,-1.01 -0.71,-1.65 c 2.58,-4.27 7.72,-10.38 9.04,-15 c 0.45,-0.36 0.87,-0.73 1.28,-1.13 c 1.26,-0.79 1.92,-4.6 3.55,-4.56 c 11.78,0.16 23.55,0.64 35.32,1.46 Z M 593.97,742.72 c 30.84,1.54 61.68,3.03 92.53,4.46 c 8.27,0.99 17.4,0.39 25.39,1.98 c 4.47,11.12 10.18,21.96 14.33,33.34 c 1.22,2.86 2.65,5.59 4.28,8.19 c 0.33,-0.47 0.77,-0.7 1.33,-0.68 c 0.2,0.35 0.39,0.69 0.59,1.04 c 0.18,0.86 -0.13,1.44 -0.94,1.74 c -10.62,-0.87 -21.41,-0.96 -31.98,-1.8 c -4.18,-0.28 -8.36,-0.38 -12.54,-0.27 c -7.98,-0.59 -15.96,-1.08 -23.94,-1.48 c -0.25,-0.7 -0.76,-1.06 -1.51,-1.08 c -2.74,-0.26 -5.46,-0.48 -8.16,-0.66 c 0.43,-0.32 0.84,-0.67 1.21,-1.05 c -0.59,-1.08 -1.53,-1.63 -2.83,-1.64 c -0.48,-0.42 -0.89,-0.89 -1.25,-1.41 c -1.3,-0.03 -2.58,0.1 -3.85,0.4 c -2.32,-1 -0.99,-1.6 0.17,-2.52 c 0.95,-1.81 -1.57,-2.5 -2.25,-3.88 c -0.35,0.44 -0.75,0.81 -1.21,1.12 c -5.07,0.65 -9.03,-1.13 -11.9,-5.34 c 1.05,-2.36 -0.71,-2.86 -1.97,-0.58 c -3.99,-5.95 -10.22,-9.68 -16.22,-13.32 c -5.31,-3.79 -7.18,-8.37 -10.45,-13.66 c -1.5,-1.73 -1.86,1.26 -2.31,2.04 c -1.06,-0.65 -2.03,-1.4 -2.9,-2.25 c -3.18,-1.68 -6.55,-2.19 -10.1,-1.53 c -0.42,-0.01 -0.79,-0.15 -1.1,-0.43 c 1.69,-0.06 3.38,-0.1 5.1,-0.09 c 0.88,-0.02 1.71,-0.23 2.48,-0.64 Z M 710.03,793.69 c 7.12,0.29 14.23,0.61 21.34,0.97 c 0.62,-0.16 1.09,-0.52 1.4,-1.09 c 7.25,12.92 13.52,29.68 19.59,43.47 c 0,1.38 -0.54,1.69 -1.6,0.94 c -3.6,-7.55 -7.12,-15.13 -10.54,-22.74 c -0.36,-0.14 -0.63,-0.06 -0.84,0.24 c 0.25,0.5 0.23,0.97 -0.05,1.42 c -0.76,-0.23 -1.52,-0.37 -2.29,-0.43 c -1.28,0.78 0.03,1.49 -0.73,2.4 c -3.07,0.36 -6.17,0.55 -9.29,0.57 c -2.18,-0.16 -4.37,-0.3 -6.55,-0.44 c -0.47,0.03 -0.85,-0.11 -1.15,-0.44 c 0.63,-0.49 1.28,-0.96 1.96,-1.4 c 1.02,-1.32 1.15,-2.71 0.39,-4.16 c -0.64,-0.96 -1.39,-1.8 -2.28,-2.51 c 0.23,-0.46 0.22,-0.89 0,-1.3 c -5.36,-5.01 -12.01,-7.99 -17.98,-12.14 c -1.01,-0.87 -2.02,-1.74 -3.03,-2.6 c 0.76,-1.06 9.92,-0.1 11.65,-0.76 Z"/></g>
<g><path fill="#d0e2fd" stroke="#d0e2fd" stroke-width="0.5" d="M 572.09,738.6 c -14.75,0.57 -31.53,-1.32 -46.42,-1.89 c -0.66,-0.44 -0.8,-1.03 -0.43,-1.75 c 4.09,-6.39 8.26,-12.71 12.5,-18.97 c 0.06,0.64 0.29,1.19 0.71,1.65 c 0.44,-0.7 0.95,-1.33 1.54,-1.9 c 3.95,-0.3 6.66,1.41 8.13,5.14 c -0.11,0.63 0.02,1.2 0.38,1.7 c 4.08,0.86 7.31,2.96 10.96,4.69 c 1.35,1.29 2.79,2.43 4.34,3.43 c 0.03,0.65 -0.13,1.26 -0.47,1.84 c 1.54,0.16 3.04,0.51 4.52,1.04 c 0.68,0.35 2.49,2.71 1.48,3.3 c -1.33,0.1 -2.64,0.3 -3.93,0.59 c 1.63,0.31 3.28,0.48 4.95,0.53 c 0.64,0.04 1.22,0.25 1.74,0.6 Z M 528.14,740.3 c 3.77,-0.76 7.54,-0.76 11.31,0.01 c 18.04,-0.09 36.5,1.44 54.52,2.41 c -0.77,0.41 -1.6,0.62 -2.48,0.64 c -1.72,-0.01 -3.41,0.03 -5.1,0.09 c 0.31,0.28 0.68,0.42 1.1,0.43 c 3.55,-0.66 6.92,-0.15 10.1,1.53 c 0.87,0.85 1.84,1.6 2.9,2.25 c 0.45,-0.78 0.81,-3.77 2.31,-2.04 c 3.27,5.29 5.14,9.87 10.45,13.66 c 6,3.64 12.23,7.37 16.22,13.32 c 1.26,-2.28 3.02,-1.78 1.97,0.58 c 2.87,4.21 6.83,5.99 11.9,5.34 c 0.46,-0.31 0.86,-0.68 1.21,-1.12 c 0.68,1.38 3.2,2.07 2.25,3.88 c -1.16,0.92 -2.49,1.52 -0.17,2.52 c 1.27,-0.3 2.55,-0.43 3.85,-0.4 c 0.36,0.52 0.77,0.99 1.25,1.41 c 1.3,0.01 2.24,0.56 2.83,1.64 c -0.37,0.38 -0.78,0.73 -1.21,1.05 c 2.7,0.18 5.42,0.4 8.16,0.66 c 0.75,0.02 1.26,0.38 1.51,1.08 c -14.5,-0.65 -29.01,-1.37 -43.52,-2.15 c -3.53,-0.08 -7.01,-0.51 -10.44,-1.3 c -1.61,-1.71 -4.37,-4.58 -6.68,-2.27 c 0.73,0.36 1.47,0.69 2.23,0.99 c -1.1,0.75 -3.19,0.7 -4.27,-0.02 c 0.44,-0.66 0.68,-1.35 0.72,-2.07 c -13.2,-11.73 -28.4,-19.07 -42.5,-29.39 c -4.1,-2.69 -9.77,-2.96 -14.28,-4.9 c -4.23,-2.13 -7.84,-6.8 -12.82,-6.78 c -0.61,-0.11 -1.12,0.05 -1.53,0.49 c -1.01,-0.09 -1.61,-0.6 -1.79,-1.54 Z M 608.12,789.03 c 3.9,-0.72 9.23,0.2 13.38,-0.06 c 9.32,0.75 18.64,1.36 27.98,1.83 c 7.48,-0.8 14.73,1.29 22.11,0.57 c 4.55,0.16 11.54,1.74 15.87,0.73 c 5.35,1.54 14.32,0.6 20.06,0.68 c 1.01,-0.09 1.85,0.21 2.51,0.91 c -1.73,0.66 -10.89,-0.3 -11.65,0.76 c 1.01,0.86 2.02,1.73 3.03,2.6 c 5.97,4.15 12.62,7.13 17.98,12.14 c 0.22,0.41 0.23,0.84 0,1.3 c 0.89,0.71 1.64,1.55 2.28,2.51 c 0.76,1.45 0.63,2.84 -0.39,4.16 c -0.68,0.44 -1.33,0.91 -1.96,1.4 c 0.3,0.33 0.68,0.47 1.15,0.44 c 2.18,0.14 4.37,0.28 6.55,0.44 c 3.12,-0.02 6.22,-0.21 9.29,-0.57 c 0.76,-0.91 -0.55,-1.62 0.73,-2.4 c 0.77,0.06 1.53,0.2 2.29,0.43 c 0.28,-0.45 0.3,-0.92 0.05,-1.42 c 0.21,-0.3 0.48,-0.38 0.84,-0.24 c 3.42,7.61 6.94,15.19 10.54,22.74 c -11.62,0.19 -26.37,-0.89 -38.21,-1.95 c -3.82,-0.08 -7.63,-0.03 -11.42,0.16 c -4.75,-0.25 -9.48,-0.73 -14.19,-1.42 c -0.64,-1.68 -7.21,-0.61 -8.92,-1.38 c -4.13,-5.8 -8.46,-6.26 -14.82,-8.11 c -4.72,-7.97 -13.05,-6.8 -17.87,-14.05 c -8.4,-4.39 -13.43,-4.84 -19.15,-12.91 c -3.64,-2.12 -7.66,-3.41 -11.06,-5.98 c -2,-2.64 -2.24,-2.37 -5.64,-2.27 c -0.74,0 -1.19,-0.35 -1.36,-1.04 Z"/></g>
<g><path fill="#bed7fd" stroke="#bed7fd" stroke-width="0.5" d="M 529.93,741.84 c 0.41,-0.44 0.92,-0.6 1.53,-0.49 c 4.98,-0.02 8.59,4.65 12.82,6.78 c 4.51,1.94 10.18,2.21 14.28,4.9 c 14.1,10.32 29.3,17.66 42.5,29.39 c -0.04,0.72 -0.28,1.41 -0.72,2.07 c 1.08,0.72 3.17,0.77 4.27,0.02 c -0.76,-0.3 -1.5,-0.63 -2.23,-0.99 c 2.31,-2.31 5.07,0.56 6.68,2.27 c -2.72,1.16 -13.59,-0.01 -17.07,-0.6 c -3.07,-1.21 -10.19,-7.03 -13.63,-8.94 c -12.05,-9.11 -24.89,-17.01 -36.72,-26.43 c -1.35,-0.96 -2.78,-1.76 -4.3,-2.41 c -82.54,-5.7 -165.24,-10.31 -247.84,-15.51 c -3.22,-0.39 -7.13,0.41 -10.15,-0.7 c -0.67,-0.11 -1.13,0.14 -1.36,0.77 c -0.69,-0.44 -1.32,-0.93 -1.91,-1.49 c 0.53,-0.95 1.34,-1.4 2.41,-1.36 c 84.07,4.53 168.11,10.06 252.12,15.3 c 2.58,-0.48 0.08,-1.98 -0.68,-2.58 Z M 737.24,887.26 c 3.19,-0.99 12.51,-0.11 16.26,0.31 c 6.49,-0.81 15.01,2.16 21.12,0.21 c 4.15,10.27 11.61,25.27 14.55,35.25 c -0.67,0.13 -1.33,0.06 -1.96,-0.21 c 0.03,-0.72 -0.22,-1.31 -0.76,-1.78 c -6.39,-3.05 -11.26,-6.92 -16.83,-11.2 c -6.77,-3.59 -12.48,-9.26 -19.29,-12.47 c -81.29,-4.36 -162.56,-8.86 -243.83,-13.49 c -2.78,0.01 -5.56,-0.08 -8.34,-0.27 c -0.57,0.33 -0.67,0.79 -0.31,1.38 c -1.31,-0.91 -2.62,-1.81 -3.94,-2.71 c 0.68,-0.79 1.55,-1.18 2.59,-1.18 c 82.73,4.59 165.45,9.16 248.15,13.72 c 1.36,-0.07 1.57,-0.62 0.64,-1.64 c -2.61,-1.71 -5.18,-3.48 -7.72,-5.3 c -0.19,-0.17 -0.3,-0.38 -0.33,-0.62 Z"/></g>
<g><path fill="#98c0fc" stroke="#98c0fc" stroke-width="0.5" d="M 742.11,667.87 c 1.85,1.63 3.35,3.54 4.5,5.71 c 0.91,2.7 -0.97,4.24 -1.93,6.56 c -0.58,0.79 -0.74,1.7 -0.5,2.71 c -0.38,-0.01 -0.76,-0.03 -1.14,-0.05 c 0.03,-0.58 -0.16,-1.08 -0.57,-1.48 c -7.54,-2.57 -10.43,-2.86 -17.13,1.92 c -3.95,-5.34 -8.04,-10.56 -12.27,-15.66 c 1.35,-1.37 -0.6,-2.48 0.44,-3.21 c 1.69,0.01 3.38,-0.08 5.06,-0.25 c 8.42,0.9 11.67,9.5 21.91,5.46 c 0.47,-0.64 1.01,-1.21 1.63,-1.71 Z"/></g>
<g><path fill="#72aafa" stroke="#72aafa" stroke-width="0.5" d="M 202.13,679.3 c 1.28,0.87 2.55,1.77 3.81,2.68 c 21.41,14.75 42.75,29.63 63.99,44.63 c 2,1.38 4.05,2.67 6.15,3.87 c 0.59,0.56 1.22,1.05 1.91,1.49 c 23.57,16.63 47.27,33.07 71.11,49.31 c 0.82,0.71 1.7,1.34 2.65,1.88 c 10.43,7.5 20.92,14.93 31.45,22.3 c 0.16,1.13 0.63,2.12 1.41,2.97 c -1.56,1.23 -3.16,2.41 -4.81,3.54 c -0.88,0.36 -3.87,-0.14 -2.24,1.84 c 3.79,4.26 8.44,7.11 13.94,8.56 c 1.75,2.68 4.06,4.96 7.04,2.04 c 0.69,1.48 1.31,3.01 1.85,4.58 c 0.37,1.58 0.73,3.14 1.09,4.67 c 8.18,0.84 10.43,7.04 15.69,12.06 c 3,2.14 5.38,0.74 8.43,1.94 c -0.77,2.04 -0.14,2.63 1.89,1.77 c 1.62,1.06 -1.73,1.69 -2.11,2.08 c 0.7,0.4 1.45,0.73 2.24,0.98 c 0.88,2.29 1.13,4.64 0.72,7.06 c 0.12,0.1 0.24,0.21 0.36,0.31 c 3.63,0.42 6.56,-0.77 8.81,-3.6 c 11.26,4.68 6.19,19.42 17.97,22.43 c 0.5,-0.67 1.07,-1.27 1.72,-1.8 c 4.31,17.02 8.68,34.02 13.12,51 c -1.01,0.46 -1.55,1.25 -1.61,2.38 c -0.86,0.63 -1.58,1.39 -2.14,2.28 c -1.31,-1.48 -6.57,-2.62 -8.58,-3.2 c -0.88,-0.69 -0.78,-1.05 0.31,-1.06 c 0.63,0.37 1.3,0.56 2,0.58 c 1.69,-1.01 -1.95,-2.11 -2.6,-2.1 c -0.19,-0.47 -0.32,-0.97 -0.4,-1.5 c -0.47,-1.19 -3.77,-4.57 -4.9,-2.78 c 0.35,0.72 0.4,1.42 0.14,2.12 c -3.97,-0.76 -7.34,0.31 -10.12,3.21 c -0.52,0.44 -1.07,0.52 -1.65,0.23 c -0.61,-1.11 -1.13,-2.24 -1.55,-3.38 c 0.54,-0.11 1.07,-0.22 1.6,-0.34 c 0.28,-1.13 0.55,-2.27 0.81,-3.4 c 0.01,-5.79 -4.57,-7.27 -9.16,-8.6 c -0.34,0.76 -0.65,1.52 -0.93,2.31 c -0.6,-0.84 -1.31,-1.58 -2.12,-2.21 c 0.52,-0.32 1,-0.69 1.45,-1.11 c -0.15,-0.74 -0.22,-1.45 -0.2,-2.14 c 0.75,0.24 1.49,0.3 2.22,0.2 c -0.27,-3.22 -3.76,-5.02 -6.66,-3.75 c -0.59,2.97 -0.8,1.85 -2.73,0.84 c -1.63,-0.52 -3.15,-0.31 -4.57,0.63 c -82.49,-87.24 -169.21,-169.82 -255.55,-253.17 c -0.49,-0.47 -1.04,-0.85 -1.65,-1.14 c 0.29,-0.77 0.82,-1 1.59,-0.69 c 12.89,9.13 25.82,18.2 38.81,27.2 Z M 733.32,693.08 c 1.54,1.02 2.52,2.42 2.94,4.21 c 0.4,0.33 0.86,0.42 1.36,0.26 c 7.09,9.96 14.27,19.85 21.56,29.66 c 0.83,1.21 1.71,2.38 2.65,3.5 c 7.01,8.95 13.92,17.98 20.73,27.07 c -0.38,0.74 -0.34,1.44 0.14,2.12 c 9.8,15.18 21.34,29.24 32.15,43.72 c 1.17,1.05 2.32,3.75 4.23,3.14 c 3.69,4.75 7.33,9.54 10.91,14.38 c 0.02,0.71 -0.04,1.42 -0.19,2.11 c -5.04,15.57 -9.74,31.24 -14.11,47.01 c -0.89,-3.8 -1.04,-1.96 -2.72,0.01 c -2.36,2.27 -5.87,1.5 -8.26,-0.3 c -3.17,-2.24 -3.62,-6.44 -6.23,-8.48 c 0.74,-0.33 1.06,-0.9 0.97,-1.7 c 0.07,-4.66 -1.86,-8.23 -5.8,-10.71 c -0.83,-0.88 -0.58,-2.28 -2.14,-1.48 c -0.28,-1.94 -0.49,-3.92 -0.62,-5.91 c -0.13,-0.13 -0.27,-0.26 -0.4,-0.38 c -0.71,0.37 -1.4,0.43 -2.08,0.18 c 0.03,-0.31 0.03,-0.61 -0.02,-0.91 c -1.3,-1.77 -2.14,-3.73 -2.53,-5.89 c -0.4,-0.38 -0.83,-0.4 -1.31,-0.07 c -0.64,-1.82 -1.44,-3.57 -2.41,-5.25 c -3.68,-6.06 -7.17,-12.22 -10.46,-18.49 c -1.33,-2.2 -3.07,-3.98 -5.24,-5.34 c 1.37,-4.86 -8.25,-17.43 -6.81,-21.07 c -0.09,-0.14 -0.18,-0.27 -0.27,-0.41 c -4.36,-0.72 -2.47,0.46 -2.9,-2.28 c -1.68,-4.76 -3.38,-9.52 -5.08,-14.28 c 1.25,-1.39 2.16,2.67 2.98,0.65 c -0.77,-1.14 -1.49,-2.34 -2.16,-3.6 c -1.11,-2.21 -1.71,-4.55 -1.8,-7.02 c 0.43,-0.29 0.82,-0.61 1.18,-0.95 c -3.3,-3.24 -6.4,-4.92 -7.11,-9.98 c -0.42,-3.38 -1.03,-6.73 -1.84,-10.04 c -2.59,-5.59 -4.9,-11.3 -6.93,-17.13 c -0.7,-1.53 -0.97,-3.11 -0.81,-4.75 c -0.71,-0.69 -1.42,-0.68 -2.13,0.03 c -1.52,-3.29 -1.13,-6.34 1.16,-9.15 c 1.13,-1.17 2.37,-2.2 3.71,-3.09 c -1.15,-2.84 -2.55,-5.55 -4.2,-8.13 c -0.25,-0.4 -0.28,-0.82 -0.11,-1.26 Z"/></g>
<g><path fill="#7bb0fb" stroke="#7bb0fb" stroke-width="0.5" d="M 470.32,927.89 c 1.95,9.94 10.29,37.08 10.64,45.09 c -20.97,-21.15 -41.43,-44.23 -62.03,-65.88 c 1.42,-0.94 2.94,-1.15 4.57,-0.63 c 1.93,1.01 2.14,2.13 2.73,-0.84 c 2.9,-1.27 6.39,0.53 6.66,3.75 c -0.73,0.1 -1.47,0.04 -2.22,-0.2 c -0.02,0.69 0.05,1.4 0.2,2.14 c -0.45,0.42 -0.93,0.79 -1.45,1.11 c 0.81,0.63 1.52,1.37 2.12,2.21 c 0.28,-0.79 0.59,-1.55 0.93,-2.31 c 4.59,1.33 9.17,2.81 9.16,8.6 c -0.26,1.13 -0.53,2.27 -0.81,3.4 c -0.53,0.12 -1.06,0.23 -1.6,0.34 c 0.42,1.14 0.94,2.27 1.55,3.38 c 0.58,0.29 1.13,0.21 1.65,-0.23 c 2.78,-2.9 6.15,-3.97 10.12,-3.21 c 0.26,-0.7 0.21,-1.4 -0.14,-2.12 c 1.13,-1.79 4.43,1.59 4.9,2.78 c 0.08,0.53 0.21,1.03 0.4,1.5 c 0.65,-0.01 4.29,1.09 2.6,2.1 c -0.7,-0.02 -1.37,-0.21 -2,-0.58 c -1.09,0.01 -1.19,0.37 -0.31,1.06 c 2.01,0.58 7.27,1.72 8.58,3.2 c 0.56,-0.89 1.28,-1.65 2.14,-2.28 c 0.06,-1.13 0.6,-1.92 1.61,-2.38 Z"/></g>
<g><path fill="#6aa5fa" stroke="#6aa5fa" stroke-width="0.5" d="M 383.2,805.46 c 13,8.96 25.97,17.97 38.91,27.03 c 0.88,0.67 1.82,1.23 2.83,1.68 c 8.99,6.56 18.06,13.03 27.19,19.41 c 0.5,7.91 3.58,15.54 5.07,23.31 c -0.65,0.53 -1.22,1.13 -1.72,1.8 c -11.78,-3.01 -6.71,-17.75 -17.97,-22.43 c -2.25,2.83 -5.18,4.02 -8.81,3.6 c -0.12,-0.1 -0.24,-0.21 -0.36,-0.31 c 0.41,-2.42 0.16,-4.77 -0.72,-7.06 c -0.79,-0.25 -1.54,-0.58 -2.24,-0.98 c 0.38,-0.39 3.73,-1.02 2.11,-2.08 c -2.03,0.86 -2.66,0.27 -1.89,-1.77 c -3.05,-1.2 -5.43,0.2 -8.43,-1.94 c -5.26,-5.02 -7.51,-11.22 -15.69,-12.06 c -0.36,-1.53 -0.72,-3.09 -1.09,-4.67 c -0.54,-1.57 -1.16,-3.1 -1.85,-4.58 c -2.98,2.92 -5.29,0.64 -7.04,-2.04 c -5.5,-1.45 -10.15,-4.3 -13.94,-8.56 c -1.63,-1.98 1.36,-1.48 2.24,-1.84 c 1.65,-1.13 3.25,-2.31 4.81,-3.54 c -0.78,-0.85 -1.25,-1.84 -1.41,-2.97 Z"/></g>
<g><path fill="#93befd" stroke="#93befd" stroke-width="0.5" d="M 535.02,698.02 c 3.84,0.42 7.69,0.61 11.55,0.57 c 0.74,0.14 1.24,0.57 1.49,1.27 c -0.41,0.4 -0.83,0.77 -1.28,1.13 c -2.21,-1.32 -12.52,1.38 -13.25,-1.36 c 0.57,-0.47 1.06,-1.01 1.49,-1.61 Z M 782.56,757.78 c 4.05,5 7.92,10.13 11.6,15.4 c 1.03,1.21 1.95,2.48 2.76,3.83 c 7.44,9.87 14.83,19.79 22.16,29.75 c -1.91,0.61 -3.06,-2.09 -4.23,-3.14 c -10.81,-14.48 -22.35,-28.54 -32.15,-43.72 c -0.48,-0.68 -0.52,-1.38 -0.14,-2.12 Z M 801.54,915.97 c 0.32,1.3 1.13,1.94 2.43,1.94 c -5.73,19.82 -12.36,39.34 -18.79,58.78 c -0.1,0.72 0.19,1.19 0.88,1.41 c -1.08,2.08 -2.27,4.09 -3.59,6.04 c -1.37,-0.57 -1.64,-1.53 -0.8,-2.88 c 0.41,-1.29 -0.73,-7.39 1.41,-7.26 c -0.03,1.11 -0.55,2.85 0.39,3.7 c 6.1,-20.54 12.13,-41.12 18.07,-61.73 Z M 673,924.2 c 0.14,0.75 0.61,1.07 1.42,0.94 c 9.05,-0.09 18.09,-0.14 27.14,-0.13 c 0.47,-0.04 0.86,0.1 1.16,0.43 c -1.09,0.42 -2.19,0.8 -3.32,1.13 c 0.14,0.64 0.13,1.27 -0.03,1.9 c 0.79,0.42 1.27,1.04 1.44,1.87 c -0.98,1.73 -3.08,-1.55 -4.72,0.24 c -1.07,2.83 -2.6,3.5 -4.41,5.63 c -1.06,3.86 -4.43,3.44 -6.06,6.91 c -1.56,2.76 -0.68,6.46 3.03,4.38 c -0.92,-2.3 -0.38,-2.73 1.64,-1.27 c 0.27,0.39 0.3,0.82 0.09,1.28 c 1.68,1.55 4.84,-0.12 6.28,-1.34 c 1.46,0.32 2.85,0.82 4.17,1.49 c 0.6,1.58 -3.79,2.59 -4.45,3.78 c 0.51,1.87 -1.46,4.49 -2.71,5.75 c -0.21,0.41 -0.21,0.83 -0.01,1.27 c -1.05,0.41 -2.12,0.74 -3.23,0.99 c 1.74,0.74 3.5,1.41 5.29,2.01 c -0.66,0.73 -1.91,0.11 -1.68,1.39 c -21.01,-5.62 -42.01,-11.28 -63,-16.99 c -0.16,-1.28 0.94,-0.67 1.62,-1.33 c -0.72,-0.47 -1.49,-0.82 -2.31,-1.06 c 0.93,-0.41 1.91,-0.63 2.96,-0.65 c 0.11,-0.54 0.23,-1.1 0.36,-1.66 c 0.5,-0.16 0.98,-0.36 1.45,-0.57 c 5.91,-5.72 13.6,-9.05 20.58,-13.24 c 2.76,-1.08 3.63,0.54 2.29,-2.66 c 5,-0.25 10,-0.41 15.01,-0.49 Z"/></g>
<g><path fill="#4b92f7" stroke="#4b92f7" stroke-width="0.5" d="M 730.89,762.23 c 19.6,42.75 39.48,85.38 59.63,127.89 c 2.69,4.45 8.97,20.49 11.93,23.07 c -0.32,0.92 -0.62,1.85 -0.91,2.78 c -5.94,20.61 -11.97,41.19 -18.07,61.73 c -0.94,-0.85 -0.42,-2.59 -0.39,-3.7 c 2.24,-16.97 4.27,-33.96 6.09,-50.97 c -2.94,-9.98 -10.4,-24.98 -14.55,-35.25 c -0.13,-0.3 -0.26,-0.6 -0.4,-0.9 c -1.38,-3.3 -2.81,-6.59 -4.27,-9.86 c -5.32,-12.37 -10.72,-24.72 -16.19,-37.03 c -0.29,-1.08 -0.76,-2.06 -1.4,-2.95 c -6.07,-13.79 -12.34,-30.55 -19.59,-43.47 c 0.51,-0.92 0.4,-1.76 -0.35,-2.52 c -0.2,-0.35 -0.39,-0.69 -0.59,-1.04 c -5.08,-11.68 -10.16,-23.37 -15.23,-35.05 c -1.02,-2.45 -2.23,-4.79 -3.63,-7.03 c 0.18,-1.07 -0.06,-2.05 -0.71,-2.94 c -6.53,-14.84 -13.24,-29.6 -20.16,-44.26 c -0.11,-0.96 -0.41,-1.87 -0.9,-2.72 c -1.76,-3.98 -3.49,-7.98 -5.21,-11.98 c 0,-0.96 0.16,-1.85 0.46,-2.7 c 0.73,1.18 1.48,2.35 2.24,3.51 c 0.19,0.01 0.38,0.02 0.58,0.03 c 0.19,-0.52 0.33,-1.07 0.42,-1.63 c 0.61,-0.41 1.25,-0.78 1.91,-1.11 c 1.81,-0.27 2.37,2.59 3.08,3.72 c 2.68,2.37 3.21,4.62 3.94,8.02 c 4.34,6.63 2.74,6.27 2.2,13.46 c -0.43,0.24 -0.89,0.25 -1.37,0.02 c -1.42,1.24 1.25,5.09 2.04,6.27 c 0.49,-1.15 -0.46,-1.98 1.05,-2.55 c 1.54,0.3 3.07,0.41 4.59,0.31 c 2.11,5.49 7.08,12.12 7.16,17.92 c 6.47,3.35 11.12,27.17 16.6,30.93 Z"/></g>
<g><path fill="#87b7fc" stroke="#87b7fc" stroke-width="0.5" d="M 743.04,682.8 c -1.15,4.37 -6.37,10.24 -5.42,14.75 c -0.5,0.16 -0.96,0.07 -1.36,-0.26 c -0.42,-1.79 -1.4,-3.19 -2.94,-4.21 c -2.57,-3.36 -5.23,-6.64 -7.98,-9.84 c 6.7,-4.78 9.59,-4.49 17.13,-1.92 c 0.41,0.4 0.6,0.9 0.57,1.48 Z M 640.01,924.99 c 5.99,-0.07 11.99,-0.17 17.98,-0.3 c 1.34,3.2 0.47,1.58 -2.29,2.66 c -6.98,4.19 -14.67,7.52 -20.58,13.24 c -0.47,0.21 -0.95,0.41 -1.45,0.57 c -0.13,0.56 -0.25,1.12 -0.36,1.66 c -1.05,0.02 -2.03,0.24 -2.96,0.65 c 0.82,0.24 1.59,0.59 2.31,1.06 c -0.68,0.66 -1.78,0.05 -1.62,1.33 c -7.66,-2.02 -15.33,-4.02 -22.99,-6.03 c -0.01,-0.17 -0.03,-0.34 -0.04,-0.51 c 0.67,-0.15 1.32,-0.29 1.97,-0.44 c -1.83,-1.28 -2.7,-1.34 0.29,-2.21 c 0.49,-0.48 0.99,-0.96 1.49,-1.44 c 2.69,-0.45 3.97,-2.61 6.57,-3.37 c 1.07,-1.58 2.19,-3.1 3.37,-4.57 c 5.85,-0.45 11.72,-0.62 17.6,-0.53 c 0.54,-0.45 0.78,-1.04 0.71,-1.77 Z"/></g>
<g><path fill="#6da8fa" stroke="#6da8fa" stroke-width="0.5" d="M 908.29,686.1 c -11.53,50.58 -23.25,101.11 -35.16,151.59 c -0.59,1.63 -1.36,3.18 -2.32,4.62 c -16.46,25.13 -32.67,50.42 -48.64,75.86 c -0.49,-0.8 -1.2,-1.07 -2.12,-0.81 c -3.23,-1.72 -4.81,-4.4 -4.75,-8.05 c 0.16,-4.1 3.53,-7.01 5.32,-10.47 c 4.24,-7.11 -4.17,-14.36 1.87,-21.44 c 1.41,-1.3 2.75,-2.65 4,-4.06 c 0.36,0.41 0.7,0.84 1.03,1.28 c 1.43,-2.39 1.09,-0.3 2.24,-1.28 c 0.35,-1.07 1.01,-4.85 -1.24,-3.73 c -1.36,-0.77 0.92,-1.65 1.23,-2.26 c 0.37,-2.35 -0.11,-2.49 1.88,-3.92 c -0.32,-0.8 -0.36,-1.62 -0.13,-2.45 c 1.34,-3.27 2.41,-6.64 3.21,-10.08 c 1.07,-4.96 -1.03,-9.14 -1.4,-13.94 c 0.68,0.95 1.43,1.83 2.26,2.64 c 0.25,-1.44 0.57,-2.86 0.94,-4.27 c 0.38,0.6 0.63,1.26 0.77,1.97 c 0.89,0.65 1.64,1.43 2.24,2.36 c 0.42,-0.61 0.5,-1.27 0.25,-1.97 c -1.82,-1.79 -2.41,-1.22 -0.24,-3.22 c 0.06,-2.78 0.25,-5.55 0.56,-8.31 c 2.02,-8.98 10.52,-12.92 7.26,-23.67 c 1.34,-0.85 2.77,-1.52 4.28,-2 c -0.08,-0.35 -0.15,-0.69 -0.2,-1.05 c 3.85,-6.17 5.2,-11.47 5.85,-18.72 c 0.93,-5.58 5.04,-8.14 7.4,-12.89 c 1.11,-3.04 -0.39,-8.05 0,-11.4 c 0.63,-9.67 6.73,-17.8 11.33,-25.83 c 0.65,-3.33 1.26,-6.66 1.84,-10.01 c 1.71,-5.08 3.47,-10.16 5.28,-15.21 c 2.9,-5.47 6.55,-10.58 9.34,-16.05 c 2.21,-4.25 0,-9.28 2.66,-13.1 c 3.62,-3.93 7.31,-7.78 11.08,-11.58 c 2.83,-2.49 2.05,-1.35 3.21,0.95 c 0.37,-0.41 0.74,-0.83 1.1,-1.25 c 0.3,0.26 0.43,0.6 0.39,1.03 c -1.16,6.42 -2.38,12.82 -3.67,19.22 c -0.08,0.8 0.27,1.3 1.05,1.5 Z"/></g>
</svg>
